<svg width="510" height="507" viewBox="0 0 510 507" fill="none" xmlns="http://www.w3.org/2000/svg">
<path opacity="0.1" d="M87.5794 185.212C88.3027 178.424 89.9942 171.769 92.7318 165.47C102.781 142.435 114.343 128.735 130.502 110.362C148.585 89.8082 158.356 71.1904 175.205 49.8349C192.999 27.2887 227.786 10.7185 255.83 6.56757C283.985 2.40554 315.868 7.19076 338.281 23.85C361.906 41.4218 380.09 65.4036 391.241 92.1897C407.499 131.228 408.835 176.232 390.384 215.993C375.127 248.878 343.945 272.203 309.992 284.912C243.299 309.873 198.808 304.186 150.566 282.096C129.344 272.381 109.035 253.218 97.6617 232.842C89.6381 218.464 85.8211 201.471 87.5571 185.201L87.5794 185.212Z" fill="#BA2A66"/>
<path opacity="0.1" d="M473.58 303.607C476.518 300.324 478.988 296.641 480.814 292.601C487.513 277.823 485.365 261.108 487.179 245.428C489.216 227.878 499.509 212.955 502.458 195.65C507.867 163.957 494.502 130.371 464.855 115.893C435.755 101.682 399.899 106.278 374.537 126.098C357.8 139.185 345.981 158.036 339.583 178.145C331.014 205.065 332.805 234.121 343.11 260.295C353.671 287.115 373.68 303.941 399.921 315.27C413.742 321.246 431.704 322.692 446.393 319.343C456.754 316.972 466.547 311.464 473.591 303.596L473.58 303.607Z" fill="#BA2A66"/>
<path opacity="0.1" d="M52.9811 301.537C51.1338 300.057 49.42 298.421 47.8398 296.619C35.8211 282.908 35.3425 264.402 28.3094 248.388C20.8422 231.384 9.33539 216.305 3.68215 198.488C-2.50526 179.002 -0.913893 157.057 8.60091 138.962C31.0247 96.3069 95.7143 86.002 133.039 115.081C152.703 130.393 165.434 154.742 170.542 178.846C177.397 211.119 172.078 246.752 154.161 274.684C143.8 290.843 127.998 304.097 109.514 309.772C91.6079 315.27 68.1825 313.734 52.9811 301.537Z" fill="#BA2A66"/>
<path opacity="0.1" d="M146.282 55.7437C145.091 57.1236 143.756 58.3588 142.153 59.2269C137.413 61.8087 132.761 59.1935 130.09 55.0314C128.376 52.3717 127.809 49.1334 127.609 45.9729C126.907 34.6664 130.747 23.1374 138.092 14.5128C146.505 4.64192 166.781 -8.10013 176.396 6.85648C179.578 11.8086 177.965 17.9404 174.927 22.5921C172.345 26.5427 168.761 29.7143 165.378 33.0083C159.547 38.6949 154.217 44.8934 149.476 51.5037C148.452 52.9282 147.428 54.3971 146.282 55.7214V55.7437Z" fill="#BA2A66"/>
<path opacity="0.1" d="M62.7296 321.223C64.7773 322.659 66.4132 324.45 66.5578 326.865C66.7915 330.749 62.9077 333.542 59.3132 335.011C39.8941 342.946 8.81241 330.549 7.96665 307.535C7.77747 302.45 8.96821 296.507 13.3862 293.458C17.1921 290.831 22.5338 290.308 26.6402 292.568C29.6226 294.203 31.7815 296.963 34.0183 299.523C40.9624 307.469 49.42 314.09 58.7902 318.931C60.0922 319.61 61.4944 320.355 62.7408 321.223H62.7296Z" fill="#BA2A66"/>
<path opacity="0.1" d="M455.218 332.185C453.171 333.62 451.535 335.412 451.39 337.827C451.156 341.711 455.04 344.504 458.635 345.973C478.054 353.907 509.136 341.51 509.981 318.497C510.171 313.411 508.98 307.468 504.562 304.419C500.756 301.793 495.414 301.27 491.308 303.529C488.325 305.165 486.167 307.925 483.93 310.484C476.986 318.43 468.528 325.051 459.158 329.892C457.856 330.571 456.454 331.317 455.207 332.185H455.218Z" fill="#BA2A66"/>
<path d="M422.912 404.987C393.066 387.76 344.679 387.76 314.833 404.987C284.986 422.214 284.986 450.157 314.833 467.384C344.679 484.611 393.066 484.611 422.912 467.384C452.759 450.157 452.759 422.214 422.912 404.987Z" fill="#FFA7CC"/>
<path d="M188.837 404.987C158.99 387.76 110.604 387.76 80.7576 404.987C50.9112 422.214 50.9112 450.157 80.7576 467.384C110.604 484.611 158.99 484.611 188.837 467.384C218.683 450.157 218.683 422.214 188.837 404.987Z" fill="#FFA7CC"/>
<path d="M312.14 425.007C344.301 443.581 344.301 473.683 312.14 492.256C279.979 510.83 227.82 510.83 195.659 492.256C163.498 473.683 163.498 443.581 195.659 425.007C227.82 406.434 279.979 406.434 312.14 425.007Z" fill="#FFA7CC"/>
<path d="M272.828 423.839L277.28 421.425L272.751 420.334L272.828 423.839Z" fill="#263238"/>
<path d="M318.199 430.594C318.199 430.594 263.681 408.226 263.147 411.887C263.024 412.689 263.08 413.412 263.258 414.069C263.214 414.002 263.147 413.946 263.102 413.879L264.338 420.623C264.338 420.623 268.299 423.773 272.817 423.828C272.817 423.505 272.773 421.48 272.74 420.323C274.22 420.879 275.744 421.558 277.558 422.671C281.075 424.83 283.434 428.747 287.262 433.265C290.044 436.559 294.841 437.961 301.907 438.707C309.508 439.508 316.107 437.806 317.91 435.691C319.345 434.011 318.489 431.039 318.199 430.583V430.594Z" fill="#263238"/>
<path d="M316.675 429.393C316.14 428.87 314.148 426.822 311.478 424.608C309.141 422.671 306.403 420.212 303.499 418.264C302.341 417.485 300.55 416.228 299.537 415.215C298.569 414.236 297.634 413.223 296.755 412.155C294.34 409.206 292.292 405.967 290.512 402.596C288.976 399.691 288.575 397.632 288.598 394.349C288.642 386.315 288.998 378.269 290.044 370.301L264.204 370.724C265.105 374.797 265.629 381.774 266.196 386.426C267.053 393.504 267.298 395.073 264.816 402.251C264.082 404.365 262.947 406.413 262.924 408.649C262.891 412.288 265.84 415.315 269.078 416.973C271.76 418.353 274.809 418.865 277.414 420.345C280.151 421.892 282.332 424.307 284.335 426.7C286.227 428.959 287.774 431.641 290.367 433.188C293.238 434.89 295.931 435.358 299.214 435.903C302.987 436.526 307.783 436.437 310.966 436.07C316.519 435.424 320.592 433.243 316.686 429.415L316.675 429.393Z" fill="#FFA8A7"/>
<path d="M295.33 419.054C299.158 416.851 302.72 417.563 303.621 417.986C307.694 420.99 311.066 423.672 313.447 425.542C316.341 427.812 318.878 429.893 318.867 432.609C318.867 436.882 302.441 438.774 293.082 435.068C288.23 433.554 286.372 429.582 286.372 429.582C286.372 429.582 287.507 423.561 295.319 419.054H295.33ZM263.47 404.888C264.772 402.094 265.261 400.67 265.261 400.67C268.522 402.306 274.387 410.14 272.127 418.32C269.19 417.663 266.307 416.65 263.859 413.1C262.012 410.418 262.168 407.681 263.481 404.876L263.47 404.888Z" fill="#37474F"/>
<path d="M223.619 410.34C225.143 412.777 223.173 421.981 223.518 428.535C223.83 434.489 225.421 444.861 223.596 450.748C221.426 457.714 217.019 465.804 208.829 459.272C203.754 455.221 200.839 449.991 200.149 441.422C199.67 435.468 202.041 427.222 204.088 419.922C206.47 411.386 207.382 406.824 207.382 406.824L223.63 410.329L223.619 410.34Z" fill="#263238"/>
<path d="M206.792 366.428C206.203 380.316 207.827 390.064 207.916 398.956C207.827 403.096 207.549 406.59 206.648 410.964C205.479 416.639 203.498 424.529 202.675 428.202C201.506 433.343 200.627 436.581 202.408 442.346C202.541 442.791 202.753 443.225 202.987 443.648C205.468 448.4 211.767 451.983 213.792 451.416C214.36 452.35 215.784 452.918 217.342 452.651C217.565 452.617 217.787 452.562 218.01 452.484C218.233 452.417 218.455 452.317 218.689 452.217C220.024 451.56 221.304 450.203 222.05 447.854C222.172 447.465 222.283 447.042 222.372 446.597C223.841 439.441 222.773 434.823 222.639 432.019C222.484 428.791 222.673 424.674 222.951 419.466C223.229 414.258 224.476 397.899 226.289 390.076C227.636 384.612 229.305 377.768 231.075 370.467L206.804 366.428H206.792Z" fill="#FFA8A7"/>
<path d="M201.451 434.901C206.425 432.709 220.836 432.397 223.14 439.419C223.196 446.029 223.24 450.503 219.067 456.256C213.525 463.902 206.292 455.8 203.509 450.659C200.738 445.518 200.772 438.462 201.451 434.901Z" fill="#37474F"/>
<path d="M224.543 185.035C217.521 199.691 210.944 208.16 210.009 241.411C208.952 278.992 209.319 293.325 209.141 297.855C208.963 302.384 206.036 310.697 203.565 332.998C201.084 355.311 203.699 409.395 203.699 409.395C203.699 409.395 205.457 413.034 213.982 413.869C221.849 414.636 226.468 411.865 226.468 411.865C226.468 411.865 241.669 344.193 244.674 330.75C248.925 311.754 255.19 274.107 255.19 274.107L259.03 305.756C259.03 305.756 256.537 318.064 258.796 337.65C261.055 357.247 265.239 394.728 265.239 394.728C265.239 394.728 270.191 398.211 276.88 398.956C284.48 399.802 289.61 396.208 289.61 396.208C289.61 396.208 297.233 318.542 297.4 296.352C297.567 274.162 298.124 220.367 294.451 185.892L224.52 185.035H224.543Z" fill="#FF9936"/>
<path opacity="0.4" d="M224.543 185.035C217.521 199.691 210.944 208.16 210.009 241.411C208.952 278.992 209.319 293.325 209.141 297.855C208.963 302.384 206.036 310.697 203.565 332.998C201.084 355.311 203.699 409.395 203.699 409.395C203.699 409.395 205.457 413.034 213.982 413.869C221.849 414.636 226.468 411.865 226.468 411.865C226.468 411.865 241.669 344.193 244.674 330.75C248.925 311.754 255.19 274.107 255.19 274.107L259.03 305.756C259.03 305.756 256.537 318.064 258.796 337.65C261.055 357.247 265.239 394.728 265.239 394.728C265.239 394.728 270.191 398.211 276.88 398.956C284.48 399.802 289.61 396.208 289.61 396.208C289.61 396.208 297.233 318.542 297.4 296.352C297.567 274.162 298.124 220.367 294.451 185.892L224.52 185.035H224.543Z" fill="white"/>
<path opacity="0.5" d="M284.469 220.067C281.052 229.203 270.903 234.089 265.539 235.335L258.161 273.65L259.04 305.756L255.201 274.106L260.977 231.14C260.977 231.14 276.167 228.636 284.48 220.067H284.469ZM233.924 212.889C233.022 216.483 232.199 220.1 231.331 223.717C230.474 227.334 229.617 230.95 228.693 234.601C228.638 230.839 228.994 227.089 229.517 223.383C230.029 219.666 230.752 215.983 231.631 212.333C232.544 208.694 233.59 205.077 234.914 201.56C236.227 198.044 237.763 194.572 239.811 191.411C238.664 194.994 237.64 198.544 236.672 202.128C235.726 205.711 234.792 209.295 233.935 212.9L233.924 212.889ZM227.669 205.911C226.445 208.07 225.288 210.263 224.108 212.455L220.647 219.154C220.881 216.595 221.549 214.113 222.417 211.709C223.274 209.306 224.375 207.002 225.6 204.765C226.857 202.551 228.226 200.403 229.773 198.389C231.308 196.363 232.989 194.438 234.892 192.735C233.768 195.039 232.533 197.22 231.308 199.401C230.095 201.583 228.849 203.741 227.669 205.923V205.911ZM232.499 307.28C234.725 295.796 236.327 284.189 237.919 272.571C239.466 260.942 241.012 249.301 242.715 237.683C241.925 249.401 240.99 261.108 239.744 272.793C238.531 284.478 237.017 296.152 234.814 307.725C232.477 319.277 230.118 330.728 227.614 342.212C225.143 353.686 222.528 365.126 219.768 376.555C221.627 364.959 223.641 353.385 225.811 341.845C227.936 330.305 230.218 318.754 232.499 307.28ZM286.194 268.609L284.502 237.984C286.005 248.11 287.162 258.282 288.03 268.476C288.876 278.691 289.677 288.852 289.633 299.201C289.21 309.495 288.353 319.655 287.44 329.849C286.539 340.031 285.437 350.203 284.157 360.363C284.513 350.136 285.003 339.92 285.593 329.715L286.472 314.414C286.761 309.317 287.117 304.198 287.251 299.145C287.373 294.115 287.106 288.996 286.906 283.9C286.717 278.803 286.416 273.706 286.172 268.598L286.194 268.609Z" fill="#FF9936"/>
<path d="M370.514 139.719C369.657 139.686 368.989 140.164 367.298 140.665C369.112 139.574 371.694 137.95 373.051 135.679C373.252 135.334 373.463 134.8 373.452 134.4C373.441 134.021 373.229 132.975 372.64 132.764C372.64 132.764 373.552 131.751 374.364 130.894C375.021 130.193 376.401 128.468 375.088 127.801C374.053 127.266 372.573 127.778 370.981 128.669C371.783 127.834 372.317 127.088 372.317 126.576C372.317 125.052 371.326 124.273 368.388 125.742C365.451 127.222 358.128 131.295 352.174 131.517C351.106 131.562 348.969 131.918 348.057 131.228C346.799 130.282 348.535 128.591 349.248 127.856C349.938 127.166 350.583 126.421 351.173 125.642C351.841 124.774 352.453 123.839 352.72 122.782C352.998 121.724 352.898 120.523 352.252 119.643C351.896 119.176 351.351 118.809 350.839 119.221C348.814 120.868 346.733 122.437 344.696 124.072C342.771 125.619 340.69 127.155 339.054 129.025C337.184 131.172 335.704 134.121 332.978 137.115C330.251 140.097 327.313 142.802 320.436 147.776C316.641 150.525 310.309 155.555 310.309 155.555C310.309 155.555 301.596 136.87 298.135 129.436C291.825 115.882 285.882 112.121 273.942 109.772L275.41 139.897C275.41 139.897 286.828 168.341 291.369 177.645C295.909 186.948 300.36 188.662 303.844 188.439C314.761 187.627 323.452 174.084 339.677 154.486C341.001 152.884 344.173 149.801 349.348 149.601C351.373 149.523 353.643 149.278 354.979 149.156C356.592 149.011 359.486 148.31 361.033 147.821C364.293 146.786 364.338 147.03 368.989 143.614C369.568 143.191 371.883 141.288 371.716 140.598C371.571 140.02 371.093 139.73 370.492 139.708L370.514 139.719Z" fill="#FFA8A7"/>
<path d="M367.298 140.676C365.807 141.321 364.338 141.9 362.791 142.312C361.266 142.779 359.686 143.068 358.128 143.547C359.764 143.547 361.378 143.302 362.958 142.879C364.516 142.401 366.063 141.744 367.309 140.676H367.298Z" fill="#F28F8F"/>
<path d="M338.653 142.891C338.687 142.58 338.753 142.268 338.865 141.979C339.076 141.411 339.421 140.877 339.788 140.409C340.534 139.464 341.513 138.696 342.604 138.195C344.952 137.093 348.057 137.238 350.182 138.774C350.238 138.818 350.305 139.063 350.171 139.03C347.767 138.462 345.341 138.017 342.993 139.107C341.046 140.009 339.777 141.945 339.065 143.915C338.998 144.104 338.798 144.037 338.776 143.859C338.72 143.503 338.62 143.258 338.664 142.891H338.653Z" fill="#F28F8F"/>
<path d="M356.225 135.068C358.762 134.389 361.255 133.298 363.659 132.252C365.962 131.251 368.21 130.082 370.458 128.958C370.481 128.947 370.514 129.014 370.492 129.025C368.311 130.694 365.94 131.952 363.403 133.02C361.066 133.999 358.696 134.522 356.247 135.112C356.225 135.112 356.203 135.068 356.225 135.057V135.068Z" fill="#F28F8F"/>
<path d="M356.169 139.519C358.707 138.84 361.199 137.75 363.603 136.704C364.527 136.303 365.439 135.88 366.341 135.435C367.231 135.001 368.144 134.6 368.989 134.077C369.245 133.922 369.501 133.755 369.768 133.599C370.102 133.387 370.403 133.154 370.77 133.009C371.148 132.864 371.549 132.775 371.949 132.775C371.983 132.775 372.038 132.798 372.027 132.831C371.527 132.92 371.048 133.131 370.614 133.387C370.325 133.566 370.047 133.766 369.779 133.977C369.535 134.166 369.29 134.311 369.034 134.489C368.244 135.012 367.42 135.502 366.586 135.947C365.528 136.515 364.449 137.015 363.347 137.483C361.01 138.462 358.64 138.985 356.192 139.575C356.169 139.575 356.147 139.53 356.169 139.519Z" fill="#F28F8F"/>
<path d="M272.884 109.027C285.359 111.241 290.701 113.946 295.286 122.047C299.604 129.681 310.621 154.82 310.621 154.82L321.694 146.875C321.694 146.875 320.815 150.002 324.075 156.033C327.336 162.065 333.156 163.167 333.156 163.167C333.156 163.167 326.123 172.926 319.679 179.459C313.236 185.991 306.826 190.754 300.349 188.25C293.873 185.746 291.202 179.214 287.774 171.502C284.347 163.801 274.732 139.697 274.732 139.697L272.884 109.016V109.027Z" fill="#E18500"/>
<path d="M298.257 173.338C299.971 166.361 304.99 157.948 310.621 154.821C310.621 154.821 310.176 153.797 309.43 152.127C300.828 157.313 298.547 166.917 298.257 173.327V173.338Z" fill="#263238"/>
<path d="M284.447 49.3791C280.218 45.4174 274.776 42.7132 269.079 41.5336C261.433 39.9422 253.376 40.9549 246.076 43.7036C243.06 44.8387 240.111 46.2854 237.685 48.411C234.825 50.9037 232.31 54.8543 232.711 58.7381C232.711 58.7604 230.864 59.2723 229.294 62.9558C226.557 69.3881 226.724 76.5102 226.512 83.3431C226.368 88.0059 225.733 92.869 223.129 96.7417C223.04 96.8753 222.951 97.0199 222.962 97.1757C222.985 97.3204 223.096 97.4428 223.196 97.543C225.655 99.8911 228.872 101.427 232.243 101.883C232.477 101.916 232.733 101.939 232.956 101.861C233.256 101.761 233.468 101.505 233.668 101.249C234.914 99.6129 235.805 97.6988 236.239 95.6845C236.428 97.8323 236.216 100.013 235.615 102.083C235.549 102.295 235.493 102.54 235.604 102.74C235.704 102.907 235.894 102.985 236.072 103.04C247.122 106.913 258.763 106.446 270.258 105.834C272.261 105.722 274.264 105.444 276.223 104.999C277.102 104.81 277.981 104.576 278.838 104.287C279.617 104.031 280.452 103.819 281.175 103.452C281.231 103.419 281.286 103.385 281.32 103.33C281.353 103.263 281.32 103.185 281.298 103.118C280.619 101.226 280.151 99.2456 279.918 97.2536C280.752 98.5779 281.72 99.8354 282.789 100.971C283.212 101.427 283.623 101.883 284.28 101.649C286.339 100.915 288.275 99.8354 290 98.4778C290.2 98.322 290.423 98.1105 290.401 97.8546C290.389 97.6765 290.256 97.5207 290.134 97.3872C289.11 96.2632 288.108 95.1059 287.14 93.9374C286.394 93.036 285.66 92.1123 285.026 91.1219C283.534 88.8072 282.588 86.192 281.787 83.5768C281.409 82.3415 281.142 81.2509 281.086 79.9601C281.019 78.6135 280.975 77.267 280.897 75.9204C283.234 74.752 285.882 73.1828 287.073 70.7902C287.741 69.4437 288.865 66.6171 288.275 65.1036C289.054 67.1067 289.388 69.2879 289.232 71.4357C290.901 67.8635 291.959 63.835 291.146 59.9734C290.679 57.77 289.622 55.7223 288.353 53.8639C287.229 52.228 285.927 50.7257 284.491 49.3791H284.447Z" fill="#263238"/>
<path d="M269.824 110.786C269.824 110.786 268.489 109.472 266.864 109.205C266.007 108.671 265.673 107.659 265.551 107.492L265.395 102.562C269.479 102.851 273.875 101.694 276.779 99.3122C281.164 95.7177 282.132 89.6305 282.388 81.0838C282.555 75.4862 281.119 72.9267 281.231 71.7471C281.898 64.6805 281.387 63.4008 279.84 59.695C277.058 53.7747 269.646 51.4266 266.241 57.5806C257.227 50.1023 246.733 59.2499 246.799 70.1891C247.779 79.2365 244.985 79.6038 243.227 79.6038C240.801 73.906 234.981 73.817 232.421 77.3669C230.107 80.5831 230.018 85.6465 234.146 90.3872C238.175 95.0055 242.904 92.2568 242.982 91.3442C242.982 91.3442 243.294 103.519 243.316 105.945C243.338 108.371 243.027 109.328 240.901 109.528C237.329 110.174 233.289 110.941 233.289 110.941C233.289 110.941 236.528 114.024 236.984 114.547C238.03 115.849 239.61 117.018 243.494 121.892C253.632 126.054 265.718 131.774 272.829 136.314C275.433 130.361 277.97 120.612 277.97 120.612C274.309 114.959 269.791 110.774 269.791 110.774L269.824 110.786Z" fill="#FFA8A7"/>
<path d="M282.232 55.5443C283.679 58.1149 283.979 61.3088 283.045 64.1132C282.622 65.3707 281.921 66.5948 280.797 67.2736C279.428 63.7459 277.113 60.5854 274.164 58.2151C275.266 62.0321 273.908 66.4279 270.859 68.9763C270.492 66.2943 269.857 63.6569 268.956 61.1085C268.9 62.8 268.7 64.4915 268.355 66.1497C268.288 66.4613 268.222 66.7729 268.021 67.0177C267.765 67.3181 267.365 67.4517 266.975 67.5518C265.551 67.9413 264.115 68.2641 262.657 68.52C262.09 66.0161 261.656 63.49 261.355 60.9527L261.4 67.8857C261.4 68.1639 261.4 68.4755 261.233 68.7092C261.01 69.0208 260.587 69.0987 260.198 69.1432C255.735 69.6551 251.228 69.7553 246.755 69.4548C246.51 69.4437 246.232 69.4103 246.054 69.2434C245.842 69.0431 245.831 68.7092 245.842 68.4199C245.942 63.9796 246.232 59.3168 248.635 55.5888C249.526 54.1977 250.683 52.9959 252.007 52.0166C260.354 45.8069 276.534 45.3951 282.232 55.5777V55.5443Z" fill="#263238"/>
<path d="M236.684 88.4734C236.639 89.653 237.563 90.6546 238.742 90.6991C239.922 90.7436 240.923 89.8199 240.968 88.6403C241.012 87.4607 240.089 86.4591 238.909 86.4146C237.73 86.3701 236.728 87.2938 236.684 88.4734Z" fill="#BA2A66"/>
<path d="M262.134 86.1689L268.967 88.2166C268.433 90.1641 266.474 91.2991 264.594 90.7316C262.702 90.164 261.611 88.1275 262.134 86.1689Z" fill="#B16668"/>
<path d="M262.591 87.7264C264.494 87.6485 266.129 88.9394 266.563 90.7088C265.94 90.898 265.261 90.9202 264.583 90.7088C263.225 90.3082 262.29 89.1285 262.056 87.782C262.235 87.7486 262.401 87.7152 262.58 87.7041L262.591 87.7264Z" fill="#F28F8F"/>
<path d="M278.804 68.8309L273.563 67.2395C273.952 65.7595 275.444 64.9248 276.89 65.3588C278.337 65.804 279.194 67.3508 278.804 68.8309Z" fill="#263238"/>
<path d="M254.122 69.1763L259.263 67.0953C258.74 65.6375 257.16 64.9252 255.746 65.5039C254.322 66.0826 253.599 67.7185 254.122 69.1763Z" fill="#263238"/>
<path d="M272.884 73.3047C272.806 74.5288 273.752 75.5971 274.987 75.7084C276.223 75.8197 277.28 74.9072 277.347 73.6942C277.424 72.4701 276.479 71.4017 275.243 71.2904C274.008 71.1792 272.951 72.0917 272.873 73.3047H272.884Z" fill="#263238"/>
<path d="M256.025 73.7827C255.947 75.0291 256.915 76.1308 258.173 76.2309C259.43 76.3422 260.51 75.4186 260.587 74.1722C260.665 72.9258 259.697 71.8241 258.44 71.7239C257.182 71.6126 256.103 72.5363 256.025 73.7827Z" fill="#263238"/>
<path d="M265.384 102.572C256.681 101.849 248.313 99.601 246.098 94.3262C246.098 94.3262 246.142 99.0335 251.173 101.649C258.439 105.421 265.461 105.121 265.461 105.121L265.384 102.572Z" fill="#F28F8F"/>
<path d="M274.309 80.8945L266.352 83.9548L265.083 68.9648L274.309 80.8945Z" fill="#F28F8F"/>
<path d="M290.066 172.46C290.089 168.732 290.256 163.424 290.934 158.705C290.934 158.705 296.944 153.152 297.378 145.562C297.834 137.606 294.651 131.975 286.772 123.617C278.682 115.037 271.237 109.273 271.237 109.273L265.784 107.804C265.784 107.804 270.647 122.627 267.921 127.445C254.255 123.361 242.559 114.993 238.197 110.831L227.213 112.355C227.213 112.355 219.801 125.887 221.805 137.55C222.895 143.86 225.154 154.576 227.002 163.079C228.793 171.314 227.513 179.916 223.396 187.272C223.018 187.94 222.639 188.618 222.272 189.286C218.767 195.585 213.948 207.27 213.948 207.27C213.948 207.27 231.72 216.473 261.878 214.548C292.036 212.611 294.818 207.47 294.818 207.47L290.712 181.084C290.267 178.236 290.055 175.364 290.066 172.482V172.46Z" fill="white"/>
<path d="M242.559 156.113C242.559 156.113 245.141 165.872 256.781 167.486C267.431 168.955 273.162 160.709 273.162 160.709C273.162 160.709 270.658 172.794 256.281 170.39C241.925 167.998 242.548 156.102 242.548 156.102L242.559 156.113Z" fill="#E0E0E0"/>
<path d="M243.149 108.027C243.149 108.027 253.053 131.453 256.447 143.583C259.842 155.713 257.783 165.328 256.024 187.139C254.667 203.932 252.352 229.272 252.352 229.272C252.352 229.272 220.469 228.226 210.932 213.825C213.692 205.512 222.227 186.182 224.442 180.885C226.657 175.588 225.7 170.87 222.528 158.473C219.345 146.075 213.992 139.231 214.326 130.106C214.66 120.981 221.148 113.747 223.507 112.212L243.16 108.027H243.149Z" fill="#FF9936"/>
<path d="M267.12 110.274C267.12 110.274 287.908 131.207 289.02 152.785C290.133 174.363 290.601 221.592 290.601 221.592C290.601 221.592 292.971 220.546 297.634 215.627C296.855 205.823 294.184 167.107 295.186 162.689C296.187 158.271 306.915 148.389 297.511 133.822C288.108 119.255 272.884 109.028 272.884 109.028L265.539 107.492C265.64 108.305 265.94 109.05 267.12 110.274Z" fill="#FF9936"/>
<path d="M275.889 114.181C277.235 115.449 278.582 116.718 279.884 118.042C282.488 120.668 285.081 123.317 287.574 126.043C288.809 127.423 290.055 128.792 291.246 130.217C291.847 130.929 292.437 131.641 293.016 132.387C293.572 133.121 294.217 133.911 294.484 134.98C294.752 136.003 294.707 136.994 294.607 137.951C294.507 138.919 294.273 139.843 294.028 140.755C293.539 142.458 292.904 144.094 292.159 145.707C293.55 147.566 294.885 149.447 295.698 151.75C295.798 152.051 295.876 152.384 295.909 152.729C295.909 153.074 295.909 153.431 295.864 153.731C295.798 154.354 295.686 154.944 295.586 155.545C295.353 156.736 295.097 157.904 294.818 159.073C293.728 163.747 292.426 168.365 291.035 172.961C292.047 168.276 293.071 163.591 294.017 158.906C294.251 157.737 294.451 156.558 294.64 155.389C294.718 154.799 294.807 154.221 294.841 153.642C294.896 153.063 294.863 152.618 294.674 152.073C293.917 149.97 292.47 147.978 291.046 146.141L290.823 145.852L290.979 145.518C291.725 143.882 292.37 142.157 292.849 140.421C293.082 139.553 293.271 138.674 293.372 137.795C293.483 136.927 293.516 136.037 293.316 135.258C293.149 134.512 292.626 133.811 292.081 133.077C291.535 132.353 290.968 131.63 290.378 130.929C289.21 129.504 287.997 128.125 286.784 126.733C284.358 123.962 281.898 121.191 279.394 118.487C276.879 115.783 274.409 113.034 271.727 110.497C273.185 111.632 274.542 112.901 275.9 114.158L275.889 114.181Z" fill="#37474F"/>
<path d="M237.351 142.068L237.407 139.13L237.529 133.266C237.752 125.442 237.985 117.619 238.397 109.796C238.586 117.63 238.608 125.476 238.597 133.321L238.553 139.208L238.531 142.146V142.87C238.531 143.059 238.542 143.237 238.586 143.415C238.686 143.782 238.898 144.138 239.165 144.472C240.289 145.819 242.058 146.742 243.761 147.555C245.497 148.356 247.333 149.024 249.169 149.569L249.804 149.758L249.559 150.359C248.579 152.718 247.667 155.122 246.966 157.57C246.799 158.182 246.632 158.794 246.521 159.395C246.398 159.985 246.32 160.642 246.409 161.098L246.443 161.254L246.543 161.476L247.99 164.537C249.091 166.874 250.215 169.188 251.273 171.536L254.478 178.581L250.816 171.759C249.592 169.489 248.424 167.185 247.233 164.893L246.343 163.179L245.898 162.322L245.564 161.677L245.475 161.365C245.285 160.553 245.397 159.896 245.486 159.228C245.586 158.561 245.742 157.926 245.909 157.292C246.543 154.966 247.355 152.729 248.223 150.504C246.521 150.003 244.851 149.413 243.216 148.69C241.413 147.855 239.577 146.909 238.174 145.229C237.841 144.795 237.54 144.294 237.395 143.715C237.329 143.415 237.295 143.114 237.306 142.814V142.068H237.351Z" fill="#37474F"/>
<path d="M223.496 112.199C213.024 113.835 208.762 120.134 203.921 133.599C197.311 152.006 191.469 170.145 190.111 179.393L214.861 173.116L228.526 146.853C228.526 146.853 233.868 125.653 223.507 112.199H223.496Z" fill="#E18500"/>
<path d="M271.482 217.363L218.366 208.182L211.533 139.742L264.649 148.923L271.482 217.363Z" fill="#BA2A66"/>
<path opacity="0.2" d="M271.482 217.363L218.366 208.182L211.533 139.742L264.649 148.923L271.482 217.363Z" fill="black"/>
<path d="M269.568 214.325L218.678 205.523L212.301 141.701L263.191 150.504L269.568 214.325Z" fill="#FAFAFA"/>
<path d="M263.369 194.918L259.063 151.817L211.522 139.721L218.355 208.194L268.611 220.98C269.601 221.225 270.358 220.558 270.258 219.523L268.077 197.689C267.988 196.765 267.242 195.886 266.363 195.663L263.358 194.907L263.369 194.918Z" fill="#BA2A66"/>
<path d="M190.456 179.405C190.289 186.405 191.346 187.595 198.947 191.668C206.559 195.741 225.822 202.162 241.146 203.932C251.128 205.078 256.292 204.711 260.198 203.242C265.584 201.228 271.872 195.118 270.547 185.837C272.306 181.041 269.78 180.34 267.71 179.772L268.021 182.944C268.021 182.944 263.481 185.915 259.341 185.893C255.201 185.87 259.13 181.096 259.931 178.192C260.721 175.287 260.61 173.596 258.239 172.171C256.893 172.138 256.414 173.985 252.174 178.058C248.947 181.152 246.365 186.861 241.469 186.104C237.629 185.514 214.983 174.486 214.983 174.486L214.115 165.717L190.456 179.416V179.405Z" fill="#FFA8A7"/>
<path d="M190.111 179.394C189.733 183.756 190.467 186.048 192.437 187.974C194.418 189.888 202.641 193.961 207.705 195.83C212.768 197.7 226.078 201.573 228.626 202.096C226.045 197.9 226.846 189.732 229.172 186.093C231.498 182.454 234.447 183.411 234.447 183.411L214.95 174.197L213.748 162.2L190.089 179.405L190.111 179.394Z" fill="#E18500"/>
</svg>
