<svg width="464" height="510" viewBox="0 0 464 510" fill="none" xmlns="http://www.w3.org/2000/svg">
<path d="M261.559 507.61C243.471 497.78 236.253 474.416 233.703 452.649C233.277 449.016 232.37 445.274 233.4 441.813C234.43 438.353 237.604 435.509 240.647 436.484C243.17 437.293 244.649 440.216 246.338 442.543C248.584 445.639 251.594 447.977 254.912 449.202C257.092 450.007 259.68 450.255 261.474 448.619C263.935 446.373 263.622 442.006 263.072 438.416C262.047 431.726 261.025 425.036 260.002 418.347C259.453 414.759 258.903 411.092 259.373 407.492C259.844 403.893 261.529 400.308 264.365 398.772C267.203 397.236 271.175 398.492 272.322 401.887C272.8 403.3 272.764 404.87 273.071 406.344C273.377 407.819 274.226 409.352 275.522 409.527C276.833 409.705 277.935 408.444 278.716 407.21C281.413 402.955 282.917 397.856 284.281 392.81C285.646 387.765 286.932 382.619 289.281 378.094C291.63 373.568 295.223 369.644 299.662 368.482C304.103 367.32 309.348 369.568 311.225 374.4C313.108 379.245 311.29 384.884 309.094 389.529C305.834 396.42 301.709 402.755 296.89 408.273C296.022 409.268 295.081 410.345 294.899 411.748C294.572 414.276 296.901 416.271 299.078 416.658C301.542 417.097 304.034 416.327 306.523 416.184C309.013 416.039 311.839 416.762 313.153 419.23C314.976 422.654 312.868 427.023 310.607 430.055C306.079 436.128 300.646 441.285 294.621 445.233C292.461 446.647 290.163 447.966 288.579 450.184C286.995 452.403 286.351 455.849 287.845 458.161C289.342 460.477 292.341 460.727 294.677 459.746C297.012 458.765 298.951 456.841 301.102 455.4C305.129 452.701 310.735 451.962 314.12 455.696C316.344 458.149 317.08 462.024 316.657 465.546C316.235 469.067 314.801 472.308 313.219 475.347C307.692 485.971 299.968 495.16 290.573 501.069C281.18 506.978 272.09 509.849 261.559 507.61Z" fill="#E98FB5"/>
<path d="M264.427 493.098C265.592 481.637 267.778 469.195 270.452 456.273C271.132 453.046 271.803 449.856 272.464 446.713C273.131 443.577 273.792 440.467 274.601 437.472C276.199 431.47 278.134 425.841 280.116 420.563C282.096 415.282 284.144 410.354 286.087 405.761C288.04 401.172 289.93 396.934 291.796 393.156C295.51 385.58 299.128 379.888 301.751 376.095C303.059 374.193 304.116 372.757 304.844 371.795C305.196 371.337 305.47 370.977 305.678 370.706C305.868 370.464 305.969 370.343 305.977 370.35C305.985 370.358 305.899 370.494 305.724 370.75C305.528 371.032 305.266 371.406 304.935 371.883C304.237 372.873 303.209 374.335 301.93 376.259C299.366 380.096 295.813 385.81 292.156 393.394C290.317 397.177 288.453 401.417 286.522 406.011C284.599 410.611 282.571 415.54 280.608 420.815C278.645 426.087 276.729 431.7 275.148 437.671C274.346 440.651 273.695 443.735 273.028 446.878C272.368 450.02 271.698 453.207 271.02 456.433C268.348 469.346 266.152 481.753 264.96 493.175" fill="#FFF1F7"/>
<path d="M274.761 437.414C274.724 437.429 274.537 436.904 274.229 435.941C273.919 434.98 273.509 433.573 273.025 431.826C272.056 428.335 270.859 423.46 269.559 418.081C268.257 412.698 267.004 407.858 265.991 404.392C265.489 402.659 265.07 401.259 264.77 400.296C264.474 399.331 264.328 398.788 264.364 398.77C264.401 398.752 264.618 399.261 264.981 400.2C265.347 401.135 265.827 402.514 266.38 404.233C267.497 407.67 268.819 412.51 270.121 417.898C271.393 423.21 272.544 428.016 273.422 431.689C273.828 433.345 274.171 434.74 274.448 435.86C274.685 436.847 274.8 437.4 274.761 437.414Z" fill="#FFF1F7"/>
<path d="M313.742 420.966C313.749 421.012 313.188 421.2 312.168 421.499C311.151 421.805 309.678 422.238 307.871 422.842C304.253 424.014 299.303 425.834 293.919 428.118C288.535 430.413 283.742 432.728 280.317 434.516C278.598 435.397 277.224 436.152 276.271 436.669C275.321 437.19 274.785 437.457 274.766 437.416C274.747 437.374 275.248 437.027 276.169 436.433C277.091 435.845 278.442 435.021 280.142 434.082C283.532 432.176 288.318 429.783 293.716 427.481C299.116 425.192 304.106 423.437 307.763 422.381C309.589 421.835 311.082 421.471 312.118 421.243C313.156 421.022 313.732 420.921 313.742 420.966Z" fill="#FFF1F7"/>
<path d="M264.797 492.152C264.78 492.166 264.657 491.99 264.438 491.643C264.185 491.227 263.876 490.72 263.504 490.106C262.698 488.766 261.574 486.793 260.215 484.335C257.494 479.42 253.92 472.495 250.067 464.792C246.211 457.086 242.699 450.133 240.07 445.16C238.786 442.743 237.728 440.757 236.942 439.28C236.605 438.638 236.326 438.109 236.099 437.674C235.912 437.303 235.82 437.103 235.837 437.088C235.854 437.076 235.977 437.252 236.197 437.599C236.45 438.015 236.758 438.521 237.131 439.135C237.937 440.475 239.06 442.448 240.42 444.906C243.141 449.821 246.715 456.746 250.57 464.452C254.424 472.156 257.937 479.108 260.565 484.082C261.851 486.498 262.907 488.485 263.692 489.961C264.03 490.603 264.309 491.133 264.536 491.567C264.723 491.938 264.814 492.139 264.797 492.152Z" fill="#FFF1F7"/>
<path d="M315.361 461.983C315.37 462.004 315.2 462.125 314.868 462.337C314.473 462.579 313.989 462.875 313.403 463.235C312.047 464.047 310.216 465.145 307.989 466.477C303.418 469.217 297.144 473.082 290.216 477.365C283.286 481.65 276.974 485.453 272.353 488.084C270.042 489.401 268.164 490.444 266.853 491.134C266.246 491.449 265.746 491.708 265.339 491.92C264.991 492.092 264.802 492.173 264.794 492.151C264.785 492.129 264.956 492.009 265.287 491.796C265.681 491.555 266.164 491.258 266.752 490.898C268.108 490.085 269.938 488.99 272.165 487.656C276.735 484.918 283.011 481.051 289.941 476.767C296.869 472.484 303.18 468.681 307.801 466.05C310.111 464.733 311.99 463.69 313.302 462.999C313.909 462.685 314.408 462.425 314.815 462.214C315.164 462.042 315.352 461.962 315.361 461.983Z" fill="#FFF1F7"/>
<path d="M130.321 249.034C130.321 249.034 117.85 251.022 124.852 282.371C131.853 313.72 137.792 329.877 137.792 329.877C137.792 329.877 138.732 336.979 133.746 336.758C128.758 336.539 118.591 331.891 115.142 338.068C111.565 344.474 114.692 352.192 122.514 360.271C130.336 368.351 146.907 386.772 148.4 388.444C149.866 390.086 150.976 393.564 147.559 394.04C144.14 394.516 119.866 391.245 119.204 404.559C118.542 417.873 143.554 436.271 146.255 438.341C148.956 440.414 149.382 442.034 148.776 443.835C148.171 445.636 140.102 443.654 133.165 443.048C126.228 442.442 118.092 443.136 118.27 450.854C118.448 458.573 131.581 478.075 169.897 492.577L188.034 497.963L201.442 482.808C228.413 448.369 231.367 423.954 228.18 417.155C224.994 410.356 217.633 414.394 211.875 418.877C206.117 423.359 199.973 429.681 198.668 428.463C197.362 427.247 197.031 425.596 198.478 422.259C199.924 418.921 213.665 388.689 207.326 377.514C200.988 366.339 181.338 383.022 178.166 384.559C174.994 386.096 174.453 382.444 175.014 380.183C175.585 377.881 181.99 352.442 185.28 340.97C188.569 329.498 187.942 321.016 182.064 317.498C176.396 314.106 169.586 323.937 165.353 326.973C161.12 330.007 158.863 323.309 158.863 323.309C158.863 323.309 157.021 305.901 149.524 274.704C142.027 243.505 130.073 249.096 130.073 249.096" fill="#E98FB5"/>
<path d="M188.015 503.139C182.588 480.203 173.538 439.25 165.61 404.137C157.685 369.035 150.483 337.262 145.158 314.296C142.491 302.837 140.328 293.553 138.828 287.106C138.087 283.916 137.509 281.43 137.111 279.711C136.925 278.884 136.781 278.243 136.678 277.783C136.584 277.348 136.55 277.121 136.55 277.121C136.55 277.121 136.622 277.336 136.736 277.765C136.852 278.22 137.015 278.856 137.224 279.676C137.648 281.386 138.261 283.862 139.046 287.037C140.622 293.433 142.846 302.705 145.556 314.175C150.984 337.112 158.249 368.868 166.174 403.969C174.102 439.083 183.087 480.051 188.413 503.016" fill="#FFF1F7"/>
<path d="M129.14 345.227C129.162 345.188 129.586 345.452 130.334 345.963C131.086 346.47 132.152 347.24 133.462 348.205C136.078 350.141 139.633 352.92 143.508 356.068C147.319 359.188 150.765 362.009 153.401 364.168C154.595 365.131 155.601 365.946 156.41 366.6C157.123 367.171 157.508 367.505 157.487 367.544C157.466 367.583 157.04 367.323 156.288 366.819C155.538 366.31 154.471 365.54 153.169 364.559C150.569 362.593 147.046 359.762 143.173 356.615C139.346 353.527 135.883 350.736 133.234 348.599C132.036 347.641 131.025 346.833 130.211 346.183C129.501 345.603 129.119 345.265 129.14 345.227Z" fill="#FFF1F7"/>
<path d="M158.998 366.523C158.863 366.423 163.532 357.759 169.426 347.174C175.321 336.584 180.209 328.082 180.344 328.181C180.48 328.28 175.811 336.943 169.916 347.533C164.022 358.119 159.134 366.623 158.998 366.523Z" fill="#FFF1F7"/>
<path d="M169.054 421.067C169.029 421.031 169.385 420.639 170.049 419.963C170.808 419.202 171.755 418.25 172.879 417.122C175.265 414.72 178.547 411.385 182.05 407.554C185.563 403.731 188.636 400.144 190.843 397.528C191.883 396.297 192.759 395.261 193.461 394.429C194.082 393.702 194.441 393.313 194.47 393.344C194.501 393.375 194.2 393.822 193.629 394.605C193.057 395.387 192.214 396.501 191.143 397.851C189.01 400.555 185.973 404.205 182.451 408.039C178.937 411.88 175.603 415.168 173.145 417.482C171.911 418.634 170.905 419.553 170.192 420.163C169.484 420.78 169.08 421.103 169.054 421.067Z" fill="#FFF1F7"/>
<path d="M138.354 408.628C138.367 408.584 138.809 408.71 139.598 408.973C140.502 409.294 141.61 409.688 142.919 410.153C145.715 411.175 149.565 412.633 153.805 414.282C158.047 415.931 161.876 417.459 164.638 418.597C165.924 419.142 167.012 419.602 167.9 419.978C168.666 420.318 169.083 420.527 169.07 420.571C169.058 420.614 168.616 420.489 167.827 420.225C166.924 419.904 165.815 419.511 164.506 419.046C161.71 418.023 157.86 416.565 153.618 414.916C149.378 413.267 145.549 411.739 142.786 410.602C141.502 410.059 140.412 409.597 139.524 409.221C138.758 408.879 138.341 408.671 138.354 408.628Z" fill="#FFF1F7"/>
<path d="M141.895 458.073C141.908 458.03 142.472 458.196 143.482 458.535C144.593 458.924 146.024 459.426 147.743 460.027C151.334 461.315 156.28 463.139 161.733 465.193C167.186 467.247 172.114 469.142 175.671 470.545C177.366 471.229 178.779 471.798 179.874 472.24C180.863 472.654 181.403 472.904 181.39 472.948C181.377 472.992 180.814 472.825 179.803 472.488C178.693 472.099 177.261 471.598 175.542 470.996C171.951 469.708 167.005 467.884 161.55 465.83C156.098 463.777 151.171 461.882 147.614 460.479C145.919 459.795 144.507 459.226 143.411 458.784C142.423 458.367 141.883 458.117 141.895 458.073Z" fill="#FFF1F7"/>
<path d="M180.533 472.285C180.506 472.25 180.945 471.741 181.763 470.85C182.659 469.883 183.828 468.62 185.237 467.099C188.167 463.928 192.2 459.531 196.531 454.533C200.871 449.541 204.695 444.904 207.442 441.525C208.763 439.903 209.859 438.557 210.699 437.525C211.472 436.585 211.913 436.079 211.944 436.109C211.974 436.139 211.59 436.704 210.869 437.699C210.148 438.694 209.086 440.114 207.747 441.843C205.075 445.306 201.291 450.003 196.944 455.004C192.605 460.01 188.521 464.362 185.516 467.446C184.01 468.984 182.781 470.214 181.915 471.043C181.05 471.876 180.559 472.32 180.533 472.285Z" fill="#FFF1F7"/>
<path d="M76.1669 62.1047L65.9243 58.4365C65.9243 58.4365 63.2416 68.3075 54.2564 65.2838C49.5901 63.7141 48.1322 59.3617 47.8804 56.338C47.5886 52.8264 48.8942 49.4112 51.198 47.0777C53.8292 44.4118 58.4483 42.7867 64.9713 46.6549L72.1765 20.1475L62.0483 16.5215L57.828 32.0484C57.828 32.0484 42.4783 31.1762 37.5947 49.1437C32.9221 66.3343 45.268 75.1367 51.0175 77.1955C55.4141 78.77 70.7229 82.9128 76.1669 62.1047Z" fill="#FFBD7D"/>
<path d="M63.4121 11.0178L73.6907 14.6982L76.6853 3.68037L66.4067 -3.17942e-05L63.4121 11.0178Z" fill="#FFBD7D"/>
<path d="M104.436 32.1755L108.537 30.9335C108.537 30.9335 107.628 26.981 111.192 25.8257C113.042 25.2258 114.327 26.3317 114.965 27.2834C115.705 28.3893 115.894 29.8481 115.549 31.1853C115.157 32.7128 113.907 34.3704 111.014 34.6487L113.453 45.2642L117.509 44.0366L116.08 37.8181C116.08 37.8181 121.381 34.4077 119.728 27.2135C118.146 20.3289 112.4 20.359 110.097 21.0565C108.335 21.5889 102.45 23.8947 104.436 32.1755Z" fill="#FFBD7D"/>
<path d="M118.059 46.1998L113.943 47.4463L114.957 51.8585L119.073 50.6121L118.059 46.1998Z" fill="#FFBD7D"/>
<path d="M443.242 154.1L447.231 155.759C447.231 155.759 448.444 151.915 451.945 153.294C453.764 154.01 454.272 155.759 454.325 156.958C454.385 158.35 453.817 159.673 452.87 160.548C451.789 161.546 449.94 162.093 447.424 160.432L444.166 170.753L448.109 172.393L450.017 166.347C450.017 166.347 456.066 167.006 458.274 160.009C460.387 153.315 455.647 149.585 453.408 148.655C451.699 147.943 445.716 145.993 443.242 154.1Z" fill="#FFBD7D"/>
<path d="M447.49 174.531L443.487 172.867L442.133 177.157L446.136 178.821L447.49 174.531Z" fill="#FFBD7D"/>
<path d="M19.9694 206.531L28.41 202.799C28.41 202.799 25.6801 194.664 32.9955 191.262C36.7949 189.495 39.7441 191.493 41.289 193.341C43.0838 195.485 43.7786 198.527 43.322 201.453C42.7994 204.796 40.4893 208.645 34.4145 210.01L41.7467 231.854L50.0927 228.163L45.7979 215.367C45.7979 215.367 56.3376 206.718 51.3679 191.911C46.6124 177.744 34.4397 179.348 29.702 181.444C26.0789 183.047 14.0741 189.51 19.9694 206.531Z" fill="#FFBD7D"/>
<path d="M51.703 232.605L43.2327 236.351L46.2806 245.431L54.7509 241.686L51.703 232.605Z" fill="#FFBD7D"/>
<path d="M446.525 243.285L440.543 245.93C440.543 245.93 442.478 251.695 437.294 254.106C434.602 255.358 432.512 253.943 431.416 252.633C430.144 251.113 429.652 248.958 429.976 246.885C430.347 244.516 431.984 241.788 436.288 240.82L431.093 225.34L425.179 227.956L428.222 237.023C428.222 237.023 420.753 243.152 424.275 253.645C427.644 263.685 436.272 262.548 439.629 261.063C442.195 259.926 450.703 255.346 446.525 243.285Z" fill="#FFBD7D"/>
<path d="M424.057 224.814L430.06 222.16L427.9 215.725L421.898 218.38L424.057 224.814Z" fill="#FFBD7D"/>
<path d="M463.424 509.676C463.424 509.849 359.674 509.989 231.723 509.989C103.726 509.989 0 509.848 0 509.676C0 509.504 103.726 509.363 231.723 509.363C359.675 509.362 463.424 509.503 463.424 509.676Z" fill="#263238"/>
<path d="M66.3581 478.119C67.3542 473.69 64.8237 469.241 61.9868 466.027C59.1498 462.813 55.7576 459.933 54.282 455.684C51.8911 448.798 55.1059 439.883 51.0252 434.138C48.6249 430.758 44.3196 429.628 42.19 426.018C41.0723 424.124 40.7112 421.797 40.2725 419.566C38.0328 408.186 33.0705 397.529 26.0731 389.068C25.5861 399.202 27.5341 409.475 31.6441 418.461C33.2961 422.073 35.326 425.594 35.8738 429.625C36.7628 436.171 33.5795 442.913 34.9807 449.34C36.5823 456.69 43.7759 461.61 44.117 469.176C44.4057 475.573 39.5483 481.188 39.9104 487.58C40.0647 490.301 41.1657 492.828 42.3905 495.165C46.7 503.388 53.0299 509.052 62.6249 508.867L74.3767 509.339L66.3581 478.119Z" fill="#E98FB5"/>
<g opacity="0.3">
<path d="M66.3584 478.119C67.3544 473.69 64.8239 469.241 61.987 466.027C59.15 462.813 55.7579 459.933 54.2822 455.684C51.8913 448.798 55.1061 439.883 51.0254 434.138C48.6251 430.758 44.3198 429.628 42.1903 426.018C41.0725 424.124 40.7115 421.797 40.2727 419.566C38.033 408.186 33.0707 397.529 26.0733 389.068C25.5863 399.202 27.5343 409.475 31.6444 418.461C33.2964 422.073 35.3262 425.594 35.8741 429.625C36.763 436.171 33.5797 442.913 34.9809 449.34C36.5825 456.69 43.7762 461.61 44.1173 469.176C44.4059 475.573 39.5486 481.188 39.9107 487.58C40.0649 490.301 41.1659 492.828 42.3908 495.165C46.7002 503.388 53.0301 509.052 62.6251 508.867L74.377 509.339L66.3584 478.119Z" fill="#FFF1F7"/>
</g>
<path d="M76.7564 509.694C76.7564 509.694 77.8773 509.993 79.9922 509.614C81.0459 509.437 82.3422 509.116 83.8115 508.51C85.2725 507.897 86.935 507.024 88.5282 505.545C89.2934 504.778 90.0574 503.832 90.4678 502.578C90.8729 501.33 90.9464 499.957 91.0209 498.549C91.0839 497.138 91.0849 495.671 91.2948 494.186C91.4932 492.7 92.0012 491.241 92.7306 489.848C94.1171 487.054 96.4167 484.408 97.1608 480.615C97.9648 476.884 97.3886 472.846 96.8418 468.791C96.296 464.746 95.7681 460.334 97.1157 456.119C98.3762 451.901 100.954 448.093 102.242 443.337C103.524 438.534 102.927 433.367 103.198 428.271C103.322 425.711 103.753 423.153 104.729 420.782C105.68 418.394 106.999 416.143 108.029 413.629C110.114 408.547 110.483 402.788 111.054 397.143C111.332 394.299 111.613 391.425 111.897 388.523C112.177 385.607 112.402 382.704 113.202 379.897C113.926 377.069 114.975 374.335 116.014 371.548C116.522 370.147 117.06 368.745 117.377 367.189C117.607 365.599 117.673 364.111 117.756 362.55C117.888 359.457 117.777 356.323 117.443 353.212C117.124 350.099 116.635 347.013 116.344 343.893C116.326 343.709 116.308 343.524 116.291 343.355L116.23 342.733L115.748 343.009C113.232 344.456 111.077 346.61 109.422 349.137C107.738 351.647 106.513 354.48 105.534 357.359C103.572 363.154 102.864 369.228 101.874 375.023C100.908 380.818 99.6346 386.52 97.0454 391.337C95.7576 393.74 94.199 395.933 92.8356 398.276C91.4754 400.603 90.2789 403.159 89.9189 405.964C89.2241 411.671 91.9624 416.682 91.3925 421.735C91.1888 424.245 90.3188 426.593 89.2482 428.735C88.1808 430.89 86.9266 432.889 85.7364 434.898C84.5473 436.906 83.4148 438.943 82.5815 441.121C81.7334 443.292 81.2664 445.614 81.1373 447.883C80.8507 452.432 81.4133 456.747 81.1226 460.821C80.8843 464.901 79.6354 468.601 78.2227 471.908C76.8016 475.227 75.2199 478.227 73.8953 481.138C73.2289 482.592 72.6149 484.011 72.1142 485.436C71.5842 486.858 71.3239 488.315 71.0825 489.701C70.6963 492.498 70.7341 495.102 70.9954 497.401C71.5065 502.022 73.0074 505.349 74.3582 507.219C74.6678 507.717 75.0268 508.07 75.3091 508.401C75.5851 508.741 75.858 508.972 76.0805 509.152C76.5224 509.524 76.7564 509.694 76.7564 509.694C76.8078 509.626 75.7887 509.006 74.481 507.112C73.1869 505.231 71.7511 501.928 71.2903 497.359C71.0542 495.088 71.0405 492.516 71.4404 489.77C71.6881 488.414 71.9537 486.985 72.4795 485.606C72.9791 484.215 73.6004 482.801 74.2721 481.364C75.6072 478.48 77.2056 475.492 78.6572 472.151C80.0982 468.829 81.3954 465.056 81.6589 460.869C81.9675 456.708 81.4217 452.378 81.7219 447.936C81.8573 445.715 82.3117 443.501 83.1388 441.401C83.9532 439.294 85.0689 437.295 86.258 435.302C87.4472 433.307 88.7161 431.3 89.8139 429.1C90.9118 426.915 91.8333 424.47 92.0568 421.813C92.6236 416.431 89.9052 411.385 90.6116 406.081C90.9506 403.458 92.0873 401.012 93.4296 398.728C94.771 396.428 96.338 394.233 97.6646 391.77C100.336 386.814 101.63 381.004 102.606 375.184C103.605 369.352 104.312 363.343 106.241 357.667C107.2 354.846 108.399 352.085 110.025 349.661C111.626 347.219 113.688 345.165 116.085 343.785L115.544 343.44C115.561 343.611 115.578 343.798 115.597 343.985C115.892 347.141 116.383 350.233 116.699 353.31C117.03 356.385 117.139 359.457 117.011 362.505C116.934 364.008 116.855 365.587 116.65 367.004C116.362 368.424 115.836 369.822 115.332 371.21C114.3 373.985 113.237 376.761 112.499 379.65C111.682 382.524 111.448 385.538 111.176 388.42C110.895 391.324 110.617 394.2 110.342 397.045C109.781 402.713 109.412 408.38 107.403 413.286C106.411 415.728 105.093 417.987 104.115 420.453C103.105 422.914 102.657 425.617 102.54 428.219C102.284 433.425 102.874 438.513 101.647 443.125C100.428 447.714 97.8651 451.543 96.5689 455.895C95.1824 460.294 95.7565 464.848 96.317 468.882C96.8848 472.942 97.4547 476.896 96.6969 480.482C96.0179 484.106 93.7833 486.726 92.3685 489.601C91.6328 491.027 91.1049 492.57 90.9107 494.112C90.705 495.648 90.7155 497.13 90.6641 498.528C90.6032 499.917 90.5339 501.281 90.1624 502.449C89.7929 503.614 89.074 504.535 88.3393 505.288C86.8049 506.745 85.1718 507.637 83.736 508.268C82.2907 508.893 81.0113 509.238 79.9712 509.44C78.9301 509.657 78.1219 509.687 77.5803 509.705C77.0367 509.683 76.7564 509.694 76.7564 509.694Z" fill="#F3BFD5"/>
<path d="M113.889 350.782C113.876 350.778 113.837 350.917 113.775 351.189C113.706 351.512 113.621 351.911 113.516 352.403C113.285 353.466 113.009 355.069 112.566 357.074C112.104 359.071 111.038 361.332 110.127 364.119C109.179 366.883 108.218 370.087 107.334 373.687C106.438 377.284 105.643 381.279 104.813 385.558C103.957 389.83 103.101 394.411 101.052 398.732C100.088 400.923 99.0039 403.141 98.1423 405.567C97.2596 407.994 96.7831 410.646 96.4504 413.307C95.8857 418.651 95.0314 424.077 93.9168 429.627C91.5605 440.681 89.3155 451.21 87.272 460.796C85.1792 470.351 83.2932 478.96 81.7031 486.217C80.156 493.409 78.8987 499.253 78.0118 503.374C77.6035 505.352 77.2803 506.913 77.0452 508.049C76.9507 508.544 76.8741 508.946 76.8122 509.271C76.7639 509.548 76.745 509.69 76.7576 509.695C76.7702 509.699 76.8143 509.562 76.8867 509.294C76.9675 508.974 77.0682 508.581 77.1921 508.094C77.4597 506.968 77.8292 505.42 78.2962 503.458C79.2387 499.353 80.5748 493.533 82.2195 486.37C83.8547 479.125 85.7932 470.533 87.9458 460.995C90.0093 451.406 92.2742 440.875 94.6535 429.817C95.7692 424.273 96.632 418.748 97.183 413.43C97.5094 410.786 97.9638 408.23 98.8119 405.877C99.6421 403.512 100.711 401.307 101.674 399.091C103.742 394.689 104.602 389.968 105.426 385.715C106.23 381.425 106.992 377.441 107.851 373.851C108.698 370.259 109.618 367.06 110.524 364.293C111.389 361.515 112.42 359.228 112.853 357.163C113.26 355.11 113.484 353.522 113.668 352.441C113.744 351.941 113.805 351.536 113.854 351.208C113.889 350.929 113.901 350.784 113.889 350.782Z" fill="#F3BFD5"/>
<path d="M78.8312 509.735C86.5077 504.497 88.7107 488.602 85.5085 479.033C82.3063 469.465 76.7017 460.722 75.8369 450.521C75.1725 442.679 77.4101 434.631 75.819 426.967C73.6716 416.622 64.8732 408.61 64.974 397.978C65.0306 392.012 67.9883 386.398 67.7521 380.438C67.4635 373.127 62.5747 367.327 59.5467 360.887C54.9119 351.029 54.6075 339.374 53.0227 328.322C51.4379 317.269 47.7686 305.432 39.2336 300C37.9731 309.383 35.8215 315.81 36.4974 328.523C36.7399 333.088 41.3611 341.828 41.9898 351.834C42.3655 357.814 42.6258 363.804 42.9438 369.789C43.2534 375.613 43.5819 381.542 45.4008 386.991C46.7946 391.166 49.0344 394.96 50.0692 399.27C52.0162 407.38 49.4584 416.163 51.0306 424.38C52.3625 431.341 56.5597 437.332 57.4172 444.391C58.6221 454.309 53.03 464.613 55.8922 474.073C57.3133 478.767 60.6771 482.535 61.6311 487.383C62.3721 491.144 61.564 495.125 62.2357 498.903C63.3167 504.99 73.4313 509.717 78.8333 509.34" fill="#FFF1F7"/>
<path d="M41.3503 309.314C41.3377 309.316 41.3492 309.496 41.3839 309.844C41.4279 310.238 41.4857 310.746 41.557 311.386C41.7334 312.741 41.9307 314.731 42.3306 317.305C42.7598 319.892 43.9206 322.805 44.8495 326.318C45.8287 329.82 46.8038 333.86 47.6644 338.383C48.5408 342.904 49.2734 347.907 50.0427 353.291C50.8383 358.637 51.6506 364.543 53.9775 370.149C55.0543 372.966 56.2624 375.785 57.1692 378.788C58.098 381.78 58.5262 384.999 58.7886 388.309C59.1854 394.956 59.9568 401.868 61.0399 408.834C63.3909 422.738 65.6307 435.981 67.6689 448.035C69.8174 460.041 71.7527 470.858 73.3827 479.964C75.0284 489.004 76.3634 496.338 77.2986 501.475C77.7688 503.966 78.1382 505.922 78.4006 507.315C78.5276 507.942 78.6284 508.442 78.706 508.829C78.7785 509.169 78.8226 509.342 78.8351 509.339C78.8477 509.335 78.8299 509.157 78.7816 508.811C78.7218 508.419 78.6452 507.915 78.5497 507.28C78.3198 505.88 77.9976 503.913 77.5862 501.408C76.7077 496.258 75.4524 488.905 73.9054 479.842C72.3205 470.726 70.4397 459.897 68.3511 447.876C66.3318 435.825 64.1141 422.586 61.7841 408.687C60.7009 401.714 59.9348 394.903 59.5254 388.229C59.2578 384.901 58.8117 381.585 57.8514 378.517C56.9173 375.45 55.6925 372.619 54.6146 369.827C52.3003 364.303 51.4879 358.535 50.6598 353.171C49.8643 347.796 49.0981 342.778 48.186 338.248C47.2876 333.714 46.2727 329.667 45.2515 326.166C44.2764 322.641 43.0789 319.754 42.6181 317.232C42.1805 314.706 41.9317 312.696 41.7082 311.358C41.6064 310.725 41.5245 310.221 41.4615 309.83C41.4007 309.486 41.3639 309.312 41.3503 309.314Z" fill="#FFF1F7"/>
<path d="M411.684 57.9278H407.506C407.506 57.9278 407.506 61.9538 403.86 62.0261C401.966 62.0634 400.985 60.6395 400.586 59.5493C400.123 58.2832 400.263 56.84 400.884 55.6655C401.592 54.3247 403.146 53.1055 405.962 53.6754V42.8623H401.831V49.1964C401.831 49.1964 396.036 50.9155 396.036 58.2446C396.036 65.257 401.515 66.8857 403.861 66.8857C405.653 66.8857 411.763 66.3882 411.684 57.9278Z" fill="#FFBD7D"/>
<path d="M401.779 40.6357H405.972V36.1411H401.779V40.6357Z" fill="#FFBD7D"/>
<path d="M434.571 51.5115C434.583 51.5115 434.586 51.3067 434.58 50.9043C434.569 50.4634 434.554 49.8731 434.535 49.1214C434.52 48.7299 434.52 48.289 434.485 47.8072C434.426 47.3241 434.362 46.8001 434.293 46.2339C434.222 45.6629 434.145 45.0509 434.063 44.398C433.925 43.7535 433.777 43.0704 433.62 42.3476C432.975 39.4661 431.872 35.975 429.844 32.4055C427.85 28.8385 424.997 25.1318 421.12 22.1237C417.239 19.1711 412.354 16.8943 406.87 16.2908C405.497 16.2317 404.102 16.0414 402.683 16.1932C401.974 16.2498 401.254 16.2329 400.54 16.3522C399.827 16.4751 399.108 16.6004 398.384 16.7257C395.522 17.3967 392.591 18.3736 389.86 20.0662C387.124 21.719 384.519 23.8512 382.2 26.4557C379.928 29.1108 377.957 32.2104 376.438 35.6617C374.907 39.1023 373.849 42.915 373.438 46.8832C373.268 47.8662 373.269 48.8721 373.216 49.8756C373.159 50.8802 373.127 51.8885 373.168 52.9017C373.239 54.9255 373.461 56.9554 373.834 58.9611C374.643 63.3196 376.189 67.4227 378.257 71.0258L378.225 70.6596C376.763 74.841 375.328 78.9441 373.928 82.9484L373.674 83.676L374.332 83.4688C378.26 82.2292 382.082 81.0233 385.777 79.8572L385.495 79.7946C389.488 83.2435 394.047 85.4408 398.575 86.3515C400.836 86.8081 403.094 87.0021 405.275 86.8298C406.369 86.7768 407.445 86.7165 408.493 86.4804C409.019 86.3865 409.54 86.2937 410.059 86.2009C410.574 86.0913 411.073 85.9106 411.574 85.7709C419.631 83.3965 425.582 77.7008 428.987 72.0606C430.72 69.2369 431.963 66.4517 432.738 63.9014C432.936 63.2654 433.127 62.6534 433.311 62.0631C433.445 61.4572 433.573 60.8753 433.697 60.3188C433.816 59.7622 433.932 59.2298 434.041 58.7226C434.127 58.2106 434.172 57.7167 434.234 57.2541C434.337 56.3253 434.477 55.5086 434.507 54.793C434.528 54.0895 434.545 53.4883 434.56 52.9872C434.568 52.5294 434.575 52.1668 434.581 51.8849C434.584 51.638 434.581 51.5115 434.571 51.5115C434.562 51.5115 434.547 51.6368 434.527 51.8837C434.508 52.1644 434.483 52.527 434.451 52.9824C434.422 53.4799 434.387 54.0774 434.345 54.7761C434.297 55.4857 434.142 56.294 434.023 57.2144C433.446 60.8308 432.189 66.2529 428.661 71.792C425.254 77.3226 419.36 82.8737 411.44 85.1577C410.947 85.2914 410.457 85.4673 409.951 85.5709C409.442 85.6589 408.928 85.7468 408.412 85.8359C407.383 86.0624 406.326 86.1142 405.252 86.1612C403.111 86.3202 400.897 86.1202 398.683 85.6637C394.249 84.7529 389.792 82.5846 385.889 79.1958L385.761 79.085L385.605 79.1332C381.908 80.2909 378.084 81.4883 374.154 82.7183L374.557 83.2375C375.961 79.2344 377.4 75.1337 378.866 70.9547L378.933 70.762L378.833 70.5873C376.813 67.0625 375.304 63.0509 374.513 58.7925C374.148 56.8325 373.931 54.8472 373.861 52.8691C373.82 51.8789 373.851 50.8923 373.907 49.9105C373.958 48.9287 373.955 47.9445 374.122 46.9844C374.522 43.1042 375.552 39.3769 377.046 36.0111C378.528 32.6344 380.451 29.5975 382.669 26.9942C384.933 24.4415 387.479 22.3466 390.154 20.7191C392.823 19.0519 395.691 18.0857 398.494 17.4147C399.203 17.2894 399.909 17.1642 400.608 17.0401C401.308 16.9196 402.014 16.9341 402.708 16.875C404.099 16.7172 405.47 16.9003 406.818 16.9497C412.202 17.5135 417.01 19.718 420.847 22.5924C424.679 25.5233 427.517 29.1481 429.518 32.6477C431.551 36.1484 432.679 39.5841 433.359 42.4283C433.525 43.1427 433.681 43.8173 433.829 44.4534C433.921 45.0991 434.008 45.705 434.088 46.27C434.169 46.8302 434.244 47.3506 434.312 47.8288C434.358 48.3071 434.369 48.7444 434.396 49.1335C434.443 49.8828 434.481 50.4695 434.508 50.908C434.538 51.3067 434.559 51.5115 434.571 51.5115Z" fill="#263238"/>
<path d="M121.576 193.587H182.191C182.191 193.587 182.191 135.171 235.082 134.126C262.549 133.582 276.792 154.234 282.578 170.056C289.297 188.428 287.264 209.368 278.261 226.404C267.98 245.861 245.838 265.41 204.988 257.149L204.601 412.152H264.537V320.263C264.537 320.263 348.598 295.322 348.598 188.992C348.598 87.2571 276.921 65.2804 238.4 63.8686C216.964 63.0831 209.194 62.0254 182.682 66.3454C148.897 71.8507 120.862 116.876 121.576 193.587Z" fill="#CD0055"/>
<path d="M265.262 444.468H204.434V509.675H265.262V444.468Z" fill="#CD0055"/>
<path opacity="0.1" d="M265.262 444.468H204.434V509.675H265.262V444.468Z" fill="#8B8B8B"/>
<path opacity="0.1" d="M121.576 193.587H182.191C182.191 193.587 182.191 135.171 235.082 134.126C262.549 133.582 276.792 154.234 282.578 170.056C289.297 188.428 287.264 209.368 278.261 226.404C267.98 245.861 245.838 265.41 204.988 257.149L204.601 412.152H264.537V320.263C264.537 320.263 348.598 295.322 348.598 188.992C348.598 87.2571 276.921 65.2804 238.4 63.8686C216.964 63.0831 209.194 62.0254 182.682 66.3454C148.897 71.8507 120.862 116.876 121.576 193.587Z" fill="#8B8B8B"/>
<path d="M96.4677 193.586H157.083C157.083 193.586 157.083 135.171 209.973 134.125C237.441 133.582 251.683 154.233 257.469 170.055C264.189 188.428 262.156 209.367 253.153 226.403C242.871 245.86 220.342 263.544 179.493 255.283V412.15H239.429V320.261C239.429 320.261 323.49 295.32 323.49 188.99C323.49 87.2552 244.004 63.627 209.979 63.627C183.96 63.6294 95.3248 70.8489 96.4677 193.586Z" fill="#CD0055"/>
<path opacity="0.3" d="M96.4677 193.586H157.083C157.083 193.586 157.083 135.171 209.973 134.125C237.441 133.582 251.683 154.233 257.469 170.055C264.189 188.428 262.156 209.367 253.153 226.403C242.871 245.86 220.342 263.544 179.493 255.283V412.15H239.429V320.261C239.429 320.261 323.49 295.32 323.49 188.99C323.49 87.2552 244.004 63.627 209.979 63.627C183.96 63.6294 95.3248 70.8489 96.4677 193.586Z" fill="#8B8B8B"/>
<path d="M240.153 444.468H179.325V509.675H240.153V444.468Z" fill="#CD0055"/>
<path opacity="0.3" d="M240.153 444.468H179.325V509.675H240.153V444.468Z" fill="#8B8B8B"/>
<path d="M216.82 134.449C216.817 134.471 216.504 134.448 215.913 134.386C215.32 134.351 214.458 134.159 213.33 134.145C211.085 133.974 207.817 134.04 203.826 134.598C199.838 135.171 195.128 136.305 190.105 138.302C187.608 139.335 185.011 140.522 182.46 142.076C179.886 143.573 177.339 145.406 174.984 147.633C172.615 149.838 170.611 152.411 168.865 155.054C167.112 157.688 165.595 160.38 164.279 163.029C161.702 168.363 159.941 173.509 158.851 177.949C157.737 182.385 157.25 186.096 157.028 188.663C156.899 189.947 156.865 190.949 156.834 191.63C156.799 192.309 156.772 192.667 156.753 192.667C156.734 192.667 156.725 192.309 156.724 191.626C156.719 190.943 156.718 189.935 156.816 188.641C156.972 186.055 157.404 182.309 158.479 177.828C159.528 173.342 161.264 168.141 163.84 162.746C165.154 160.067 166.676 157.345 168.44 154.679C170.193 152.012 172.222 149.396 174.636 147.148C177.03 144.884 179.611 143.035 182.213 141.529C184.795 139.967 187.418 138.781 189.939 137.755C195.009 135.772 199.761 134.677 203.778 134.157C207.8 133.653 211.091 133.654 213.343 133.901C214.473 133.953 215.337 134.184 215.927 134.26C216.516 134.364 216.823 134.428 216.82 134.449Z" fill="#263238"/>
<path d="M308.15 122.029C308.141 122.035 308.075 121.942 307.952 121.755C307.815 121.538 307.64 121.262 307.421 120.918C306.943 120.139 306.275 119.051 305.427 117.669C304.991 116.968 304.534 116.163 303.983 115.327C303.4 114.515 302.768 113.636 302.091 112.692C301.412 111.744 300.687 110.734 299.921 109.662C299.131 108.611 298.212 107.586 297.293 106.463C296.353 105.363 295.418 104.154 294.352 103C293.265 101.871 292.134 100.698 290.963 99.4834C290.372 98.8834 289.795 98.2414 289.166 97.6451C288.525 97.0656 287.875 96.4777 287.213 95.8802C285.881 94.7033 284.558 93.4179 283.115 92.2325C277.363 87.45 270.635 82.853 263.254 78.7692C261.387 77.7994 259.542 76.8417 257.723 75.8985C255.862 75.0697 254.029 74.2529 252.227 73.4506C250.441 72.6001 248.614 71.9954 246.849 71.3268C245.075 70.6943 243.365 69.9619 241.634 69.4981C239.917 68.9801 238.242 68.4754 236.614 67.9839C234.987 67.4887 233.371 67.196 231.828 66.8093C230.276 66.4768 228.795 66.0335 227.339 65.8251C225.889 65.5842 224.496 65.3529 223.165 65.1324C220.513 64.6108 218.079 64.5072 215.955 64.2614C214.891 64.1651 213.902 64.035 212.989 63.9856C212.078 63.9579 211.243 63.9314 210.488 63.9085C209.015 63.8543 207.856 63.8109 207.025 63.7808C206.655 63.7603 206.358 63.7446 206.125 63.7314C205.922 63.7169 205.817 63.7037 205.817 63.6928C205.817 63.682 205.921 63.6736 206.124 63.6676C206.358 63.6639 206.655 63.6603 207.025 63.6543C207.857 63.6567 209.017 63.6603 210.493 63.6639C211.25 63.6712 212.087 63.6784 213 63.6868C213.917 63.7181 214.908 63.8314 215.976 63.9109C218.107 64.1241 220.551 64.1976 223.214 64.6915C224.55 64.8999 225.949 65.1192 227.405 65.3468C228.867 65.5432 230.356 65.9757 231.915 66.2985C233.466 66.6756 235.09 66.9587 236.724 67.4466C238.36 67.9309 240.043 68.4296 241.769 68.9404C243.508 69.3993 245.226 70.1269 247.009 70.7558C248.783 71.422 250.617 72.0243 252.413 72.8736C254.223 73.6759 256.065 74.4926 257.934 75.3227C259.76 76.2695 261.614 77.2296 263.488 78.203C270.899 82.3037 277.651 86.9368 283.412 91.7663C284.857 92.9637 286.182 94.2612 287.514 95.4514C288.175 96.0549 288.826 96.65 289.467 97.2355C290.095 97.8378 290.673 98.4871 291.262 99.0943C292.431 100.323 293.559 101.511 294.645 102.653C295.707 103.821 296.638 105.046 297.573 106.16C298.487 107.298 299.401 108.336 300.183 109.401C300.941 110.488 301.657 111.513 302.328 112.474C302.994 113.432 303.617 114.325 304.191 115.15C304.731 115.999 305.176 116.817 305.6 117.532C306.415 118.945 307.055 120.057 307.514 120.853C307.713 121.212 307.874 121.499 308 121.724C308.107 121.919 308.157 122.024 308.15 122.029Z" fill="#263238"/>
<path d="M301.832 271.401C301.846 271.414 301.688 271.662 301.373 272.124C301.02 272.627 300.555 273.291 299.975 274.12C299.369 274.989 298.613 276.037 297.687 277.206C296.767 278.382 295.75 279.754 294.531 281.168C293.336 282.61 292.019 284.18 290.533 285.784C289.088 287.435 287.447 289.082 285.741 290.84C282.269 294.275 278.313 297.875 273.965 301.339C269.596 304.773 265.258 307.737 261.224 310.241C259.186 311.448 257.262 312.621 255.402 313.585C253.569 314.609 251.821 315.463 250.223 316.233C248.638 317.038 247.158 317.64 245.875 318.208C244.593 318.785 243.471 319.225 242.548 319.566C241.668 319.894 240.963 320.156 240.426 320.356C239.939 320.53 239.681 320.612 239.675 320.591C239.669 320.571 239.915 320.449 240.391 320.237C240.917 320.009 241.61 319.71 242.476 319.337C243.386 318.961 244.495 318.49 245.763 317.883C247.034 317.284 248.499 316.655 250.071 315.827C251.655 315.034 253.387 314.158 255.207 313.117C257.052 312.137 258.961 310.95 260.985 309.735C264.99 307.212 269.303 304.246 273.654 300.826C277.985 297.375 281.933 293.805 285.411 290.406C287.121 288.667 288.767 287.041 290.22 285.411C291.715 283.83 293.044 282.283 294.253 280.865C295.487 279.475 296.52 278.125 297.459 276.976C298.405 275.832 299.184 274.809 299.812 273.966C300.424 273.169 300.915 272.532 301.287 272.048C301.63 271.608 301.817 271.387 301.832 271.401Z" fill="#263238"/>
<path d="M238.368 406.69C238.217 406.69 238.096 387.34 238.096 363.475C238.096 339.603 238.218 320.257 238.368 320.257C238.519 320.257 238.641 339.603 238.641 363.475C238.641 387.34 238.519 406.69 238.368 406.69Z" fill="#263238"/>
<path d="M240.682 505.253C240.531 505.253 240.409 491.674 240.409 474.927C240.409 458.175 240.532 444.599 240.682 444.599C240.833 444.599 240.954 458.175 240.954 474.927C240.954 491.674 240.832 505.253 240.682 505.253Z" fill="#263238"/>
<path d="M300.351 184.341C299.292 186.767 303.214 188.722 305.477 189.508C307.74 190.293 310.154 190.211 312.514 190.064C315.642 189.87 318.883 189.535 321.603 187.753C324.02 186.168 325.822 183.548 327.082 180.699C328.341 177.85 329.105 174.753 329.863 171.679C329.863 171.679 305.065 173.542 300.351 184.341Z" fill="#FF7D00"/>
<g opacity="0.4">
<path d="M300.35 184.341C299.291 186.767 303.213 188.722 305.476 189.508C307.739 190.293 310.153 190.211 312.513 190.064C315.641 189.87 318.882 189.535 321.602 187.753C324.019 186.168 325.821 183.548 327.081 180.699C328.34 177.85 329.104 174.753 329.862 171.679C329.862 171.679 305.064 173.542 300.35 184.341Z" fill="black"/>
</g>
<path d="M370.402 176.627C374.448 179.946 379.427 181.74 384.399 181.671C386.781 181.639 389.305 181.11 391.064 179.266C391.874 178.417 392.477 177.332 393.31 176.514C393.876 175.96 394.537 175.538 395.069 174.942C395.602 174.346 396.002 173.49 395.842 172.657C395.678 171.804 395.055 170.428 394.392 169.997C391.544 168.142 388.147 168.209 384.873 168.295C381.599 168.381 378.373 169.257 375.27 170.456C372.732 171.436 370.071 172.819 368.783 175.515" fill="#FF7D00"/>
<g opacity="0.4">
<path d="M395.842 172.656C395.678 171.803 394.643 170.667 393.981 170.236C391.132 168.38 388.146 168.208 384.873 168.295C381.599 168.382 378.373 169.257 375.269 170.456C372.732 171.437 370.071 172.82 368.783 175.516L370.402 176.629C374.448 179.946 379.427 181.741 384.399 181.673C386.781 181.64 389.305 181.111 391.063 179.267C391.872 178.419 392.476 177.334 393.309 176.516C393.875 175.961 394.536 175.54 395.068 174.943C395.6 174.345 396.001 173.489 395.842 172.656Z" fill="black"/>
</g>
<path d="M321.993 219.871L374.315 220.658C374.774 220.665 375.104 220.153 374.963 219.651L368.826 197.678C368.826 197.678 369.73 186.699 370.98 173.485C372.877 153.433 375.401 128.222 375.434 128.291C371.861 116.78 350.745 114.816 350.745 114.816L326.678 116.46L325.831 114.838L318.905 118.534C317.393 119.341 315.945 120.282 314.559 121.347C309.99 124.861 298.962 132.912 296.952 141.895C292.306 162.666 300.176 185.857 300.176 185.857L305.228 181.325C306.548 180.174 307.803 179.185 309.237 178.249L319.377 209.432C319.377 209.432 317.266 210.908 317.177 213.435C317.089 215.961 318.27 219.006 321.993 219.871Z" fill="#FF7D00"/>
<g opacity="0.3">
<path d="M344.422 183.103C346.081 172.866 345.205 162.338 344.322 151.976C341.417 160.454 341.523 170.009 338.449 178.408C338.117 179.314 337.746 180.218 337.63 181.191C337.514 182.164 337.699 183.244 338.329 183.908C339.165 184.785 340.411 184.312 341.535 184.157C342.724 183.993 343.351 183.526 344.422 183.103Z" fill="black"/>
</g>
<g opacity="0.4">
<path d="M325.152 206.803C329.376 208.484 333.818 205.366 338.263 204.812C341.199 204.446 344.139 205.219 347.055 205.762C352.946 206.86 358.967 207.03 364.898 206.265C365.803 206.148 366.731 206.001 367.523 205.488C368.316 204.975 368.954 203.54 368.895 202.498C359.015 201.334 349.133 200.64 339.251 199.476C336.775 199.185 334.218 198.902 331.839 199.748C328.852 200.81 326.551 203.502 324.446 206.156" fill="black"/>
</g>
<path d="M394.334 168.688C390.056 157.649 374.996 127.097 374.996 127.097L363.331 143.881L366.053 176.83C366.053 176.83 372.212 168.938 389.433 168.782C393.447 168.745 395.843 172.656 395.843 172.656L394.334 168.688Z" fill="#FF7D00"/>
<path d="M324.312 162.856C324.166 162.901 323.286 159.674 322.346 155.65C321.406 151.624 320.763 148.325 320.909 148.281C321.054 148.236 321.934 151.462 322.874 155.487C323.814 159.512 324.457 162.811 324.312 162.856Z" fill="#263238"/>
<path d="M362.449 141.647C362.476 141.616 362.858 141.991 363.528 142.7C364.183 143.427 365.109 144.511 366.127 145.978C368.163 148.872 370.655 153.396 371.696 159.06C372.218 161.875 372.303 164.654 372.031 167.13C371.76 169.594 371.349 171.761 371.085 173.597C370.807 175.428 370.644 176.919 370.56 177.953C370.478 178.987 370.456 179.564 370.414 179.564C370.382 179.565 370.332 178.987 370.348 177.939C370.367 176.892 370.473 175.378 370.704 173.529C370.92 171.678 371.293 169.492 371.531 167.062C371.769 164.644 371.672 161.94 371.163 159.191C370.148 153.661 367.759 149.182 365.823 146.252C363.881 143.282 362.369 141.739 362.449 141.647Z" fill="#263238"/>
<path d="M351.768 217.245C351.776 217.287 351.372 217.42 350.629 217.626C350.259 217.736 349.802 217.851 349.263 217.931C348.725 218.017 348.115 218.151 347.431 218.186C346.068 218.337 344.431 218.332 342.625 218.155C340.823 217.939 338.855 217.527 336.852 216.827C334.854 216.101 333.029 215.161 331.437 214.167C329.861 213.14 328.51 212.078 327.461 211.069C326.914 210.595 326.479 210.088 326.078 209.668C325.673 209.252 325.354 208.861 325.103 208.529C324.592 207.878 324.324 207.506 324.351 207.475C324.43 207.389 325.556 208.834 327.701 210.721C328.765 211.672 330.117 212.677 331.678 213.66C333.256 214.608 335.054 215.515 337.014 216.228C338.981 216.915 340.909 217.336 342.678 217.58C344.449 217.785 346.059 217.835 347.406 217.743C350.103 217.583 351.746 217.122 351.768 217.245Z" fill="#263238"/>
<path d="M367.925 210.375C367.988 210.359 368.193 211.017 368.329 212.132C368.454 213.242 368.48 214.843 368.047 216.523C367.631 218.212 366.756 219.536 365.991 220.254C365.223 220.988 364.634 221.219 364.607 221.158C364.561 221.067 365.071 220.701 365.726 219.93C366.382 219.169 367.133 217.923 367.522 216.344C368.318 213.162 367.719 210.389 367.925 210.375Z" fill="#263238"/>
<path d="M365.08 214.619C365.217 214.581 365.495 216.34 364.815 218.325C364.15 220.318 362.912 221.402 362.833 221.268C362.716 221.137 363.697 219.94 364.304 218.099C364.936 216.269 364.917 214.625 365.08 214.619Z" fill="#263238"/>
<path d="M355.713 174.98C355.824 175.11 354.854 176.368 353.847 178.064C352.829 179.754 352.156 181.244 352.011 181.172C351.876 181.113 352.344 179.459 353.396 177.708C354.439 175.953 355.616 174.858 355.713 174.98Z" fill="#263238"/>
<path d="M319.802 145.806C319.744 145.885 318.914 145.115 317.482 144.041C316.052 142.966 313.983 141.638 311.544 140.589C309.102 139.547 306.78 138.994 305.086 138.731C303.391 138.465 302.326 138.422 302.326 138.319C302.325 138.248 303.397 138.134 305.128 138.29C306.857 138.443 309.242 138.938 311.734 140.002C314.224 141.073 316.307 142.493 317.7 143.678C319.098 144.861 319.843 145.753 319.802 145.806Z" fill="#263238"/>
<path d="M375.002 126.697C375.102 126.862 372.273 128.846 369.699 132.393C367.093 135.909 365.874 139.448 365.714 139.362C365.652 139.334 365.876 138.417 366.446 137.024C367.012 135.634 367.963 133.79 369.282 131.988C370.604 130.189 372.024 128.8 373.121 127.922C374.218 127.041 374.968 126.633 375.002 126.697Z" fill="#263238"/>
<path d="M353.394 116.77C353.412 116.761 353.492 116.953 353.63 117.328C353.786 117.696 353.945 118.266 354.119 119.017C354.451 120.513 354.629 122.814 354.099 125.541C353.554 128.235 352.244 131.373 349.817 133.843C347.412 136.33 343.87 137.806 340.161 137.791C336.443 137.762 332.955 136.303 330.412 134.051C327.836 131.827 326.133 129.048 325.047 126.587C323.979 124.095 323.483 121.906 323.259 120.387C323.151 119.625 323.086 119.032 323.07 118.625C323.046 118.22 323.042 118.008 323.061 118.006C323.115 117.999 323.181 118.848 323.468 120.339C323.753 121.828 324.299 123.965 325.39 126.383C326.499 128.772 328.196 131.455 330.712 133.586C333.193 135.743 336.566 137.132 340.163 137.162C343.751 137.176 347.161 135.77 349.486 133.407C351.835 131.058 353.145 128.042 353.723 125.436C354.285 122.799 354.173 120.552 353.91 119.068C353.652 117.573 353.33 116.798 353.394 116.77Z" fill="#263238"/>
<g opacity="0.3">
<path d="M357.064 177.115C357.048 176.513 356.98 175.805 356.524 175.504C356.238 175.314 355.869 175.355 355.573 175.522C355.276 175.688 355.038 175.963 354.813 176.241C353.542 177.821 352.654 179.366 352.008 181.385L357.153 180.875C357.12 179.631 357.097 178.361 357.064 177.115Z" fill="black"/>
</g>
<g opacity="0.3">
<path d="M374.144 164.692C373.749 161.315 372.247 158.225 370.415 155.543C372.631 163.88 371.89 168.583 370.643 174.292L370.911 173.495C372.341 170.158 374.539 168.069 374.144 164.692Z" fill="black"/>
</g>
<path d="M363.869 444.728L360.729 498.762L340.262 498.486L337.04 442.311L363.869 444.728Z" fill="#FFBE9D"/>
<path d="M361.312 491.65L361.316 493.212C361.316 493.212 384.387 503.87 384.629 508.896L338.807 508.588L339.519 491.09C346.313 494.758 353.442 495.213 361.312 491.65Z" fill="#FF7D00"/>
<path d="M344.133 496.717C343.246 496.989 342.626 498.13 342.827 499.159C343.027 500.189 344.032 500.921 344.925 500.666C345.817 500.411 346.597 499.068 346.297 498.071C345.997 497.073 344.776 496.288 343.963 496.781" fill="white"/>
<path d="M338.807 508.587L338.978 504.379L382.833 506.215C382.833 506.215 384.868 507.248 384.629 508.896L338.807 508.587Z" fill="#263238"/>
<path d="M361.478 493.361C361.47 493.617 360.35 493.726 359.245 494.545C358.121 495.33 357.548 496.439 357.343 496.335C357.138 496.285 357.479 494.751 358.832 493.787C360.177 492.81 361.529 493.126 361.478 493.361Z" fill="#263238"/>
<path d="M366.272 495.675C366.322 495.924 365.35 496.354 364.585 497.436C363.792 498.491 363.594 499.665 363.372 499.651C363.161 499.69 363.014 498.185 363.988 496.861C364.951 495.529 366.268 495.43 366.272 495.675Z" fill="#263238"/>
<path d="M368.969 502.295C368.765 502.35 368.461 501.064 369.042 499.661C369.615 498.253 370.673 497.706 370.767 497.92C370.891 498.132 370.208 498.883 369.746 500.043C369.26 501.188 369.191 502.271 368.969 502.295Z" fill="#263238"/>
<path d="M360.135 49.5934C361.316 46.2143 359.886 42.1293 357.33 39.9729C354.774 37.8166 351.37 37.3516 348.238 37.9214C345.105 38.49 342.168 39.991 339.272 41.4763C336.646 38.4478 332.495 37.301 328.956 38.6273C325.417 39.9537 322.656 43.6917 322.093 47.9153C319.838 47.2587 317.295 48.143 315.736 50.1258C314.178 52.1087 313.672 55.1035 314.472 57.6116L328.659 63.3313L344.154 94.6128C348.684 99.0496 356.091 98.9303 360.51 94.3478C364.929 89.7652 365.782 81.3182 362.393 75.6972C363.268 74.819 363.987 73.7589 364.57 72.6072C367.026 70.8653 368.947 68.1464 369.583 64.8998C370.932 58.0224 366.235 50.4137 360.135 49.5934Z" fill="#263238"/>
<path d="M350.757 114.816C349.876 109.724 349.263 106.236 349.271 106.273C349.271 106.273 357.636 102.534 357.06 89.1229C356.773 82.4539 354.556 71.9384 352.5 63.4022C350.65 55.7189 344.409 47.2477 337.8 49.6967L317.813 60.9013C315.805 61.6446 315.453 63.8094 315.927 66.1693L315.959 67.3198L323.736 104.252L327.021 120.759C328.475 127.782 334.359 132.37 340.583 131.336C347.471 130.192 352.113 122.652 350.757 114.816Z" fill="#FFBE9D"/>
<path d="M352.367 72.325C352.555 73.1972 352.066 74.0995 351.275 74.3416C350.487 74.5825 349.694 74.0729 349.506 73.2008C349.318 72.3286 349.807 71.4251 350.595 71.1842C351.386 70.942 352.179 71.4528 352.367 72.325Z" fill="#263238"/>
<path d="M351.502 69.76C351.361 70.0202 350.092 69.3516 348.532 69.7323C346.97 70.0865 345.992 71.2839 345.784 71.1056C345.683 71.0285 345.794 70.5924 346.217 70.0563C346.632 69.5239 347.396 68.9179 348.369 68.6891C349.342 68.4614 350.235 68.6746 350.782 68.9818C351.338 69.2878 351.572 69.6419 351.502 69.76Z" fill="#263238"/>
<path d="M337.173 76.3211C337.361 77.1932 336.872 78.0955 336.082 78.3377C335.292 78.5786 334.5 78.069 334.312 77.1969C334.124 76.3247 334.613 75.4212 335.402 75.1803C336.193 74.9381 336.985 75.4489 337.173 76.3211Z" fill="#263238"/>
<path d="M336.404 74.0061C336.263 74.2663 334.993 73.5977 333.435 73.9784C331.872 74.3326 330.895 75.53 330.686 75.3517C330.585 75.2746 330.694 74.8397 331.119 74.3025C331.534 73.7688 332.298 73.164 333.271 72.934C334.244 72.7063 335.137 72.9207 335.684 73.2267C336.239 73.5351 336.474 73.8881 336.404 74.0061Z" fill="#263238"/>
<path d="M344.305 85.3356C344.279 85.2356 345.214 84.8092 346.744 84.2008C347.134 84.0575 347.495 83.8756 347.505 83.5479C347.539 83.1949 347.282 82.742 346.992 82.2565C346.415 81.2398 345.811 80.1748 345.177 79.0581C342.634 74.4936 340.704 70.7014 340.866 70.5857C341.026 70.4701 343.219 74.0756 345.761 78.6401C346.378 79.7677 346.968 80.8434 347.53 81.8722C347.776 82.3553 348.143 82.8829 348.066 83.6178C348.021 83.9852 347.774 84.3032 347.533 84.4442C347.293 84.5947 347.071 84.6538 346.876 84.7152C345.31 85.191 344.33 85.4356 344.305 85.3356Z" fill="#263238"/>
<path d="M349.27 106.272C349.27 106.272 341.766 108.667 333.279 105.282C333.279 105.282 338.774 113.522 349.868 109.583L349.27 106.272Z" fill="#EB996E"/>
<path d="M336.706 71.4529C336.602 71.9685 334.997 71.9552 333.168 72.472C331.329 72.9467 329.897 73.7803 329.604 73.3719C329.472 73.1756 329.684 72.6744 330.238 72.1118C330.788 71.5505 331.697 70.9626 332.797 70.6638C333.897 70.3687 334.939 70.4289 335.649 70.6494C336.364 70.8698 336.749 71.2096 336.706 71.4529Z" fill="#263238"/>
<path d="M350.914 64.0626C350.663 64.5468 349.314 64.4312 347.782 64.7805C346.24 65.0769 345.008 65.7334 344.631 65.3805C344.463 65.2046 344.592 64.7492 345.088 64.2276C345.575 63.7096 346.45 63.1711 347.507 62.9494C348.564 62.729 349.542 62.8784 350.15 63.1675C350.766 63.453 351.02 63.8301 350.914 64.0626Z" fill="#263238"/>
<path d="M322.717 52.2722C323.178 54.873 324.688 57.2029 326.726 58.4581C328.764 59.7134 331.291 59.8676 333.434 58.8701C335.096 58.0955 336.809 56.6427 338.497 57.3426C340.272 58.0799 340.828 60.7867 342.476 61.8444C344.829 63.3563 347.664 60.7373 350.351 60.9963C352.426 61.1963 354.035 63.0503 355.66 64.5453C357.285 66.0403 359.542 67.2931 361.376 66.1607C360.887 64.173 360.391 62.1649 359.519 60.3579C358.646 58.5509 357.35 56.9378 355.674 56.1849C354.756 55.7729 353.749 55.6272 352.872 55.1104C350.977 53.9936 350.128 51.4651 348.746 49.6038C346.965 47.2054 344.126 45.8995 341.395 46.2224C339.123 46.491 336.968 47.8041 334.685 47.6921C332.997 47.6101 331.381 46.7488 329.692 46.7813C326.404 46.844 323.933 50.1508 322.109 53.2913" fill="#263238"/>
<path d="M333.777 55.0301C332.275 54.9024 329.182 54.5386 328.166 53.3087C325.96 50.6355 322.668 49.2345 319.725 50.1308C316.784 51.0258 314.414 54.4037 314.457 58.1562C310.861 59.0453 307.817 62.4773 306.795 66.7949C305.773 71.1124 306.815 76.1418 309.417 79.4498C310.098 80.316 311.139 82.3133 311.139 82.3133C311.139 82.3133 309.789 84.2468 309.271 85.5623C306.873 91.6567 313.383 93.9913 313.383 93.9913C313.401 98.0884 316.69 98.0691 318.802 98.057C320.832 98.045 322.081 104.504 323.723 104.254L322.054 84.3022C322.257 84.395 322.506 84.4552 322.824 84.4612C326.803 84.5431 325.765 75.9033 324.476 73.6687C325.598 71.94 326.731 70.1884 327.458 68.1573C328.185 66.1275 328.231 61.0534 327.613 58.9212C329 58.6875 334.437 55.0855 333.777 55.0301Z" fill="#263238"/>
<path d="M322.65 85.3575C322.031 82.6241 319.075 81.4038 317.24 83.2855C316.232 84.3179 315.632 86.055 316.267 88.963C317.962 96.7175 324.395 93.1661 324.358 92.9396C324.335 92.7999 323.375 88.5595 322.65 85.3575Z" fill="#FFBE9D"/>
<path d="M321.653 90.5941C321.618 90.5784 321.556 90.723 321.38 90.8844C321.208 91.0422 320.89 91.2085 320.505 91.1591C319.725 91.0639 318.841 89.9364 318.503 88.5474C318.331 87.8463 318.313 87.1379 318.409 86.5187C318.491 85.8923 318.724 85.4032 319.068 85.2273C319.405 85.0298 319.714 85.2032 319.844 85.3972C319.982 85.5875 319.973 85.755 320.012 85.7586C320.035 85.773 320.128 85.5863 320.004 85.2827C319.943 85.137 319.824 84.9768 319.633 84.8732C319.438 84.7683 319.183 84.7599 318.939 84.8635C318.427 85.0551 318.079 85.7393 317.973 86.4199C317.838 87.1114 317.844 87.9113 318.037 88.6992C318.422 90.2496 319.438 91.5108 320.485 91.5542C320.991 91.5602 321.352 91.2808 321.517 91.0386C321.682 90.7856 321.68 90.6013 321.653 90.5941Z" fill="#EB996E"/>
<path d="M358.891 74.5249C358.849 74.4659 359.502 73.984 360.364 72.7734C361.208 71.5735 362.236 69.5304 362.474 66.7488C362.59 65.3743 362.531 63.8263 362.097 62.282C361.665 60.7472 360.891 59.2028 359.698 58.003C357.369 55.572 353.511 54.4468 350.051 55.8466C349.735 55.9635 349.442 56.1442 349.143 56.2864C348.856 56.4586 348.585 56.6526 348.318 56.8248L347.902 57.0935L347.896 56.5622C347.885 55.6286 347.58 54.7239 347.047 54.0312C346.519 53.3337 345.835 52.8037 345.108 52.4411C343.634 51.6966 342.05 51.6833 340.602 52.0628C337.706 52.8181 335.248 54.3384 332.927 54.6444C330.629 54.9817 328.719 54.3264 327.692 53.4373C327.161 53.0121 326.863 52.5374 326.665 52.2327C326.496 51.899 326.417 51.7219 326.432 51.7122C326.487 51.6616 326.769 52.4519 327.807 53.2458C328.824 54.0372 330.663 54.601 332.877 54.2216C333.976 54.0348 335.15 53.5843 336.401 53.0542C337.653 52.529 338.992 51.899 340.499 51.5135C341.251 51.3292 342.041 51.193 342.871 51.2412C343.693 51.2906 344.524 51.505 345.316 51.8869C346.104 52.2748 346.857 52.8458 347.455 53.6313C348.058 54.4083 348.431 55.4744 348.439 56.567L348.018 56.3044C348.303 56.1177 348.592 55.9117 348.897 55.7274C349.215 55.5744 349.528 55.3829 349.864 55.2588C353.546 53.7758 357.581 54.9829 360.034 57.5753C361.287 58.8571 362.096 60.5123 362.53 62.1314C362.965 63.7625 363.002 65.3767 362.857 66.8006C362.559 69.6798 361.441 71.753 360.526 72.9336C360.063 73.5287 359.657 73.9443 359.356 74.1804C359.061 74.4225 358.902 74.543 358.891 74.5249Z" fill="#455A64"/>
<path d="M357.515 47.2919C357.477 47.3799 356.798 46.6824 355.341 46.4354C354.623 46.3282 353.715 46.333 352.757 46.7041C351.801 47.045 350.792 47.7726 350.097 48.9242L349.84 49.3495L349.683 48.8676C348.834 46.2692 346.353 43.7984 343.28 43.4105C340.972 43.1057 338.872 44.2995 337.126 45.4524C335.367 46.6342 333.761 47.7907 332.247 48.3496C330.752 48.9532 329.426 49.0194 328.555 48.8483C328.117 48.7604 327.789 48.6423 327.575 48.5387C327.362 48.4327 327.255 48.3677 327.261 48.3472C327.278 48.2906 327.729 48.5074 328.58 48.605C329.429 48.6966 330.684 48.5677 332.115 47.9316C333.564 47.3377 335.1 46.18 336.871 44.9525C337.763 44.3538 338.725 43.7394 339.812 43.3045C340.888 42.86 342.11 42.6371 343.336 42.7865C346.636 43.2045 349.252 45.8668 350.121 48.6737L349.707 48.6171C350.498 47.3558 351.613 46.6077 352.642 46.28C353.675 45.9222 354.637 45.9632 355.385 46.1234C356.138 46.2921 356.685 46.6004 357.031 46.845C357.371 47.104 357.529 47.2727 357.515 47.2919Z" fill="#455A64"/>
<path d="M343.703 88.8979C343.227 88.3703 342.516 88.198 341.859 88.2836C341.242 88.3643 340.482 88.9967 340.09 89.7653C340.081 89.7797 340.072 89.7954 340.064 89.8111C340.047 89.8448 340.021 89.8749 340.005 89.9098L340.03 89.8894C339.888 90.1628 339.804 90.4833 339.833 90.7989C339.9 91.5108 340.371 92.1084 340.929 92.4276C341.816 92.9372 342.99 92.789 343.679 91.9698C344.367 91.1519 344.415 89.6882 343.703 88.8979Z" fill="#FF7D00"/>
<path d="M344.225 92.644C344.143 92.662 344.041 92.2862 343.762 91.7814C343.489 91.2791 343 90.649 342.301 90.2816C341.6 89.9178 340.865 89.9082 340.355 90.0033C339.84 90.0937 339.526 90.2515 339.484 90.1696C339.447 90.1069 339.704 89.7949 340.262 89.5733C340.808 89.3504 341.681 89.2721 342.527 89.7118C343.371 90.1551 343.894 90.9622 344.106 91.5802C344.327 92.2079 344.291 92.6355 344.225 92.644Z" fill="#263238"/>
<path d="M322.807 94.1345C322.858 94.0972 323.107 94.738 322.713 95.6512C322.517 96.0849 322.155 96.5643 321.594 96.8125C321.034 97.0715 320.316 96.9739 319.744 96.5595C319.171 96.1475 318.785 95.4452 318.745 94.7525C318.697 94.0646 318.918 93.4828 319.173 93.0925C319.721 92.2902 320.332 92.2721 320.325 92.3408C320.36 92.4359 319.864 92.6142 319.494 93.3394C319.318 93.6936 319.184 94.1791 319.246 94.6899C319.297 95.1958 319.592 95.7042 320.035 96.0282C320.481 96.3475 321.008 96.4318 321.427 96.2668C321.854 96.1102 322.178 95.7608 322.38 95.4259C322.79 94.7296 322.716 94.1381 322.807 94.1345Z" fill="#FF7D00"/>
<path d="M319.261 93.6713C319.319 93.7026 319.229 94.0821 318.773 94.3386C318.55 94.4567 318.24 94.5314 317.9 94.4362C317.557 94.3447 317.23 94.0519 317.042 93.6532C316.854 93.2545 316.818 92.7798 316.94 92.3991C317.057 92.0197 317.28 91.7643 317.489 91.6149C317.926 91.3161 318.252 91.4366 318.243 91.5101C318.249 91.6041 317.985 91.6655 317.724 91.9667C317.456 92.257 317.259 92.8172 317.524 93.3532C317.77 93.9002 318.288 94.017 318.645 93.9194C319.007 93.8327 319.196 93.6146 319.261 93.6713Z" fill="#FF7D00"/>
<path d="M330.804 200.659C330.804 200.659 356.79 202.389 372.15 202.55C384.048 202.675 389.351 199.048 391.729 190.275C393.727 182.908 389.435 168.782 389.435 168.782C381.39 168.828 376.426 170.101 371.248 172.887L372.629 179.346L330.73 183.492L330.804 200.659Z" fill="#FFBE9D"/>
<path d="M381.362 186.237C381.218 186.349 379.997 183.736 377.44 181.769C374.909 179.755 372.343 179.405 372.382 179.21C372.388 179.137 373.034 179.119 374.049 179.378C375.061 179.632 376.429 180.222 377.747 181.251C379.063 182.284 380.042 183.53 380.618 184.518C381.198 185.506 381.419 186.203 381.362 186.237Z" fill="#EB996E"/>
<path d="M321.288 172.842C321.288 172.842 313.249 175.055 307.348 179.584L313.624 199.176C315.721 205.605 322.144 208.765 327.231 205.429C335.135 200.247 337.922 185.114 337.922 185.114L346.608 141.893L332.219 131.545L321.288 172.842Z" fill="#FFBE9D"/>
<path d="M332.219 131.546L332.799 117.331L329.586 102.934C329.408 102.136 329.321 101.141 329.883 100.656C330.471 100.149 331.352 100.174 331.824 100.727C332.704 101.759 336.9 114.403 336.9 114.403C336.9 114.403 343.267 110.011 344.404 109.797C345.541 109.582 346.958 113.516 347.047 113.826C347.136 114.137 347.058 116.468 347.058 116.468C347.058 116.468 350.996 116.603 351.349 117.224C351.702 117.844 351.803 121.058 351.803 121.058C351.803 121.058 353.468 121.671 353.737 123.12C354.005 124.571 354.541 126.954 353.756 127.476C352.971 127.999 351.313 129.046 351.313 129.046C351.313 129.046 350.646 136.421 350.474 137.092C350.302 137.763 346.61 141.893 346.61 141.893L332.219 131.546Z" fill="#FFBE9D"/>
<path d="M318.835 205.727C318.852 205.688 319.228 205.984 320.041 206.288C320.846 206.598 322.121 206.879 323.75 206.625C325.361 206.375 327.347 205.564 329.122 203.782C330.872 201.964 332.644 199.555 334.117 196.525C334.849 195.009 335.508 193.346 336.061 191.549C336.628 189.754 336.997 187.807 337.408 185.773C338.232 181.714 339.119 177.343 340.062 172.699C341.957 163.406 344.075 153.017 346.355 141.827L346.372 141.744L346.427 141.683C347.149 140.87 347.875 140.032 348.594 139.171C348.952 138.74 349.31 138.302 349.653 137.853C349.82 137.629 349.996 137.398 350.13 137.174C350.252 137.028 350.257 136.738 350.306 136.43C350.59 134.019 350.812 131.526 351.045 129.017L351.06 128.858L351.182 128.778C351.838 128.356 352.506 127.927 353.183 127.492C353.335 127.388 353.56 127.263 353.654 127.176C353.737 127.099 353.812 126.963 353.843 126.773C353.921 126.405 353.895 125.957 353.856 125.525C353.76 124.675 353.587 123.69 353.39 122.906C353.128 122.174 352.408 121.648 351.719 121.359L351.537 121.283L351.53 121.073C351.504 120.376 351.463 119.657 351.394 118.943C351.359 118.587 351.319 118.227 351.255 117.886C351.221 117.724 351.181 117.539 351.134 117.44C351.102 117.361 351.116 117.421 351.069 117.369C351.013 117.341 350.968 117.306 350.893 117.285C349.727 116.916 348.352 116.862 347.049 116.787L346.776 116.771L346.785 116.462C346.805 115.719 346.832 114.889 346.803 114.108C346.819 113.902 346.657 113.59 346.558 113.301C346.446 113.011 346.324 112.724 346.198 112.442C345.944 111.881 345.666 111.331 345.34 110.852C345.177 110.617 344.997 110.388 344.806 110.251C344.592 110.104 344.502 110.07 344.248 110.177C343.761 110.374 343.257 110.676 342.768 110.955C340.809 112.125 338.906 113.403 337.04 114.675L336.766 114.862L336.648 114.525C335.655 111.672 334.675 108.856 333.709 106.079C333.227 104.691 332.747 103.313 332.271 101.946C332.098 101.254 331.677 100.864 331.118 100.706C330.563 100.543 330.013 100.74 329.753 101.281C329.621 101.536 329.565 101.843 329.593 102.138C329.623 102.407 329.739 102.813 329.807 103.143C329.967 103.838 330.124 104.53 330.283 105.218C330.597 106.595 330.91 107.959 331.22 109.311C331.838 112.014 332.445 114.667 333.039 117.264L333.048 117.306L333.046 117.35C332.837 122.296 332.637 127.044 332.446 131.564L332.445 131.597L332.436 131.627C328.47 146.441 325.181 158.727 322.875 167.34C321.716 171.607 320.805 174.963 320.176 177.279C319.864 178.401 319.622 179.271 319.45 179.886C319.282 180.474 319.179 180.772 319.179 180.772C319.179 180.772 319.238 180.458 319.384 179.862C319.54 179.242 319.761 178.365 320.045 177.232C320.647 174.905 321.518 171.535 322.625 167.25C324.886 158.623 328.112 146.315 332.002 131.473L331.992 131.537C332.171 127.016 332.359 122.27 332.554 117.321L332.562 117.406C331.963 114.812 331.351 112.16 330.727 109.458C330.415 108.106 330.1 106.743 329.782 105.366C329.623 104.678 329.464 103.986 329.303 103.291C329.228 102.923 329.132 102.644 329.074 102.199C329.034 101.777 329.112 101.341 329.3 100.972C329.49 100.603 329.782 100.303 330.15 100.152C330.518 100.012 330.886 100.025 331.236 100.112C331.583 100.207 331.922 100.386 332.197 100.674C332.477 100.939 332.668 101.395 332.763 101.712C333.24 103.079 333.721 104.456 334.205 105.844C335.174 108.62 336.156 111.436 337.151 114.289L336.759 114.138C338.635 112.858 340.534 111.581 342.518 110.394C343.024 110.106 343.509 109.809 344.076 109.578C344.23 109.527 344.381 109.463 344.604 109.493C344.795 109.524 344.972 109.612 345.101 109.721C345.383 109.93 345.58 110.194 345.766 110.458C346.129 110.993 346.416 111.566 346.682 112.15C346.813 112.443 346.938 112.739 347.054 113.041C347.151 113.351 347.327 113.607 347.345 114.063C347.378 114.918 347.348 115.72 347.328 116.482L347.064 116.157C348.415 116.241 349.721 116.267 351.071 116.691C351.154 116.715 351.251 116.774 351.342 116.826C351.424 116.871 351.592 117.043 351.613 117.141C351.715 117.373 351.742 117.556 351.786 117.751C351.857 118.133 351.897 118.503 351.934 118.872C352.004 119.611 352.045 120.332 352.071 121.049L351.882 120.764C352.694 121.117 353.498 121.658 353.888 122.667C354.142 123.66 354.275 124.497 354.391 125.456C354.431 125.927 354.47 126.403 354.366 126.92C354.322 127.17 354.206 127.462 353.985 127.664C353.766 127.846 353.63 127.904 353.449 128.029C352.769 128.465 352.099 128.896 351.438 129.319L351.576 129.082C351.34 131.6 351.117 134.079 350.827 136.521L350.759 136.988C350.749 137.132 350.65 137.398 350.565 137.513C350.398 137.793 350.224 138.017 350.048 138.253C349.694 138.714 349.333 139.155 348.97 139.589C348.244 140.455 347.514 141.292 346.786 142.11L346.857 141.966C344.549 153.147 342.405 163.53 340.488 172.817C339.527 177.456 338.621 181.822 337.782 185.877C337.363 187.897 336.978 189.873 336.394 191.686C335.824 193.502 335.147 195.182 334.396 196.708C332.886 199.762 331.076 202.18 329.287 203.999C327.448 205.804 325.417 206.598 323.772 206.822C322.11 207.05 320.817 206.731 320.012 206.386C319.605 206.214 319.308 206.054 319.12 205.923C318.927 205.8 318.831 205.735 318.835 205.727Z" fill="#EB996E"/>
<path d="M347.054 116.445C347.05 116.533 346.699 116.579 346.144 116.609C345.592 116.645 344.834 116.663 344.054 116.893C343.278 117.123 342.649 117.57 342.273 117.984C341.888 118.395 341.721 118.745 341.644 118.707C341.582 118.684 341.624 118.245 341.984 117.689C342.333 117.134 343.035 116.545 343.916 116.285C344.794 116.028 345.601 116.088 346.159 116.164C346.722 116.25 347.059 116.361 347.054 116.445Z" fill="#EB996E"/>
<path d="M343.974 116.578C343.833 116.517 343.824 116.145 343.953 115.746C344.084 115.348 344.303 115.074 344.444 115.136C344.586 115.196 344.594 115.568 344.465 115.967C344.336 116.364 344.116 116.638 343.974 116.578Z" fill="#EB996E"/>
<path d="M351.974 120.952C351.972 121.134 350.568 121.322 348.859 121.446C348.013 121.533 347.376 121.881 347.125 122.404C346.848 122.896 346.94 123.305 346.861 123.331C346.81 123.387 346.526 122.925 346.78 122.205C346.897 121.865 347.154 121.488 347.53 121.248C347.9 121.004 348.348 120.885 348.793 120.824C350.557 120.693 351.977 120.788 351.974 120.952Z" fill="#EB996E"/>
<path d="M351.273 125.286C351.424 125.295 351.511 126.185 351.468 127.275C351.425 128.367 351.269 129.244 351.118 129.236C350.967 129.228 350.88 128.338 350.923 127.247C350.966 126.156 351.122 125.278 351.273 125.286Z" fill="#EB996E"/>
<path d="M355.637 157.732L356.57 154.039C356.757 153.298 357.571 153.063 358.041 153.614L359.259 155.04L360.02 151.567C360.22 150.651 361.308 150.525 361.664 151.377L363.382 155.489L355.637 157.732Z" fill="white"/>
<path d="M363.401 157.07C363.438 157.238 361.778 157.854 359.694 158.447C357.611 159.039 355.893 159.383 355.856 159.214C355.819 159.045 357.479 158.43 359.563 157.837C361.646 157.246 363.364 156.902 363.401 157.07Z" fill="white"/>
<path d="M300.983 136.478C301.008 136.502 300.593 136.941 300.05 137.909C299.512 138.875 298.917 140.424 298.627 142.457C298.318 144.486 298.305 146.952 298.438 149.675C298.553 152.401 298.746 155.394 299.036 158.526C299.612 164.794 300.498 170.417 301.252 174.453C301.626 176.474 301.961 178.1 302.193 179.224C302.297 179.723 302.386 180.149 302.464 180.518C302.524 180.814 302.544 180.973 302.544 180.973C302.544 180.973 302.495 180.822 302.421 180.531C302.333 180.166 302.231 179.743 302.11 179.248C301.852 178.131 301.493 176.51 301.1 174.492C300.306 170.46 299.395 164.833 298.818 158.554C298.527 155.417 298.34 152.418 298.237 149.687C298.114 146.959 298.143 144.473 298.475 142.427C298.786 140.377 299.412 138.816 299.979 137.856C300.55 136.893 300.983 136.478 300.983 136.478Z" fill="white"/>
<path d="M323.071 120.1C323.075 120.108 322.993 120.159 322.835 120.248C322.621 120.365 322.393 120.49 322.143 120.628C321.541 120.955 320.675 121.441 319.633 122.101C317.536 123.395 314.741 125.394 311.747 127.758C308.75 130.123 306.094 132.357 304.154 133.949C303.262 134.674 302.495 135.297 301.849 135.822C301.62 136.003 301.411 136.165 301.214 136.318C301.067 136.429 300.989 136.484 300.985 136.477C300.98 136.47 301.051 136.401 301.188 136.277C301.376 136.112 301.578 135.936 301.799 135.742C302.433 135.2 303.186 134.555 304.062 133.805C305.978 132.178 308.621 129.919 311.622 127.551C314.621 125.184 317.437 123.202 319.56 121.944C320.613 121.302 321.494 120.84 322.107 120.538C322.365 120.417 322.598 120.306 322.817 120.202C322.981 120.126 323.068 120.091 323.071 120.1Z" fill="white"/>
<path d="M373.123 127.936C373.118 127.942 373.057 127.889 372.948 127.785C372.798 127.635 372.643 127.48 372.476 127.315C372.063 126.914 371.448 126.351 370.638 125.742C369.034 124.492 366.638 123.084 363.891 121.823C361.14 120.561 358.569 119.665 356.697 119.075C355.762 118.777 354.999 118.558 354.471 118.409C354.257 118.346 354.057 118.287 353.864 118.232C353.726 118.188 353.654 118.162 353.655 118.153C353.656 118.145 353.732 118.155 353.873 118.182C354.069 118.224 354.271 118.268 354.489 118.314C355.023 118.434 355.792 118.627 356.736 118.904C358.623 119.451 361.209 120.323 363.971 121.59C366.731 122.856 369.131 124.3 370.724 125.596C372.333 126.869 373.123 127.936 373.123 127.936Z" fill="white"/>
<path d="M323.368 219.891C323.363 219.905 323.216 219.854 322.958 219.73C322.702 219.605 322.338 219.402 321.917 219.09C321.093 218.491 319.971 217.315 319.635 215.542C319.287 213.804 319.614 212.162 320.041 211.134C320.253 210.613 320.475 210.221 320.647 209.969C320.819 209.718 320.93 209.594 320.94 209.602C320.976 209.631 320.561 210.166 320.182 211.204C319.801 212.226 319.513 213.813 319.848 215.486C320.166 217.171 321.215 218.315 322.004 218.943C322.809 219.587 323.386 219.848 323.368 219.891Z" fill="white"/>
<path d="M320.029 206.848C320.087 206.828 320.311 207.505 320.529 208.359C320.746 209.215 320.876 209.923 320.819 209.942C320.761 209.962 320.537 209.285 320.319 208.429C320.101 207.576 319.972 206.867 320.029 206.848Z" fill="white"/>
<path d="M334.219 476.941L366.234 476.756L365.654 349.714L365.356 220.49L321.995 219.872L314.2 236.739C311.056 243.544 308.918 250.94 308.202 258.6C307.657 264.438 311.468 283.477 312.799 288.322L324.734 331.763L334.219 476.941Z" fill="#FFBD7D"/>
<path d="M374.749 220.665L409.926 330.736C414.057 345.488 412.677 360.114 405.589 373.741L364.747 465.241L341.783 432.267L375.956 350.297L345.83 294.275L350.899 220.781L365.089 220.52L374.749 220.665Z" fill="#FFBD7D"/>
<path d="M362.431 257.539C362.431 257.539 362.457 257.729 362.481 258.103C362.503 258.504 362.533 259.055 362.572 259.762C362.641 261.251 362.741 263.395 362.869 266.143C363.104 271.716 363.441 279.728 363.858 289.617C364.255 299.537 364.729 311.337 365.254 324.436C365.511 330.99 365.779 337.868 366.06 344.999C366.259 348.562 366.168 352.197 366.205 355.883C366.215 359.569 366.225 363.308 366.235 367.093C366.279 397.369 366.319 424.773 366.348 444.641C366.337 454.542 366.326 462.563 366.32 468.141C366.304 470.892 366.293 473.039 366.284 474.529C366.275 475.237 366.266 475.789 366.261 476.19C366.253 476.565 366.235 476.756 366.235 476.756C366.235 476.756 366.216 476.565 366.205 476.19C366.198 475.789 366.188 475.237 366.174 474.529C366.158 473.039 366.136 470.892 366.107 468.141C366.072 462.563 366.023 454.542 365.961 444.644C365.891 424.778 365.794 397.378 365.688 367.106C365.679 363.322 365.67 359.582 365.662 355.896C365.626 352.211 365.721 348.577 365.524 345.013C365.256 337.884 364.997 331.007 364.751 324.453C364.269 311.354 363.836 299.554 363.471 289.634C363.128 279.742 362.85 271.728 362.656 266.154C362.572 263.403 362.507 261.258 362.462 259.768C362.446 259.059 362.433 258.508 362.425 258.106C362.42 257.732 362.431 257.539 362.431 257.539Z" fill="#455A64"/>
<path d="M361.628 222.836C361.665 222.831 361.742 223.258 361.849 224.032C361.958 224.807 362.088 225.932 362.228 227.326C362.508 230.112 362.803 233.975 362.972 238.252C363.139 242.531 363.148 246.409 363.089 249.213C363.058 250.615 363.017 251.749 362.97 252.532C362.924 253.315 362.881 253.748 362.843 253.746C362.763 253.744 362.741 252.01 362.702 249.211C362.665 246.411 362.593 242.545 362.426 238.28C362.257 234.015 362.025 230.158 361.844 227.367C361.663 224.576 361.549 222.846 361.628 222.836Z" fill="#455A64"/>
<path d="M354.573 225.316C354.628 225.395 354.027 225.707 353.862 226.689C353.786 227.157 353.871 227.756 354.27 228.157C354.648 228.562 355.311 228.765 355.844 228.487C356.375 228.206 356.675 227.497 356.655 226.903C356.651 226.295 356.312 225.83 355.953 225.59C355.198 225.093 354.599 225.411 354.583 225.311C354.569 225.278 354.684 225.151 354.955 225.06C355.221 224.971 355.657 224.948 356.131 225.196C356.593 225.422 357.119 226.028 357.158 226.872C357.209 227.676 356.855 228.627 356.072 229.056C355.277 229.456 354.416 229.143 353.921 228.573C353.39 227.986 353.332 227.135 353.487 226.585C353.632 226.012 353.933 225.647 354.166 225.473C354.403 225.299 354.561 225.282 354.573 225.316Z" fill="#455A64"/>
<path d="M337.78 223.133C337.809 223.125 337.939 223.526 338.067 224.286C338.198 225.044 338.279 226.175 338.161 227.561C338.045 228.945 337.681 230.579 336.949 232.227C336.224 233.873 335.095 235.513 333.583 236.779C332.053 238.019 330.338 238.723 328.747 238.986C327.152 239.254 325.686 239.128 324.507 238.811C323.325 238.498 322.418 238.048 321.834 237.663C321.248 237.281 320.957 237.011 320.974 236.981C321.026 236.858 322.265 237.877 324.584 238.376C326.845 238.894 330.334 238.659 333.263 236.269C336.171 233.849 337.482 230.13 337.778 227.505C338.107 224.824 337.662 223.15 337.78 223.133Z" fill="#455A64"/>
<path d="M378.96 233.68C378.962 233.74 378.166 233.808 376.944 233.406C375.728 233.015 374.127 232.029 372.813 230.374C371.504 228.712 370.804 226.788 370.582 225.36C370.35 223.925 370.486 223.023 370.539 223.03C370.636 223.029 370.642 223.916 370.958 225.259C371.266 226.601 371.98 228.378 373.217 229.952C374.463 231.517 375.935 232.505 377.068 232.986C378.202 233.477 378.97 233.569 378.96 233.68Z" fill="#455A64"/>
<path d="M391.465 352.347C391.503 352.402 390.859 353.14 389.609 354.041C388.982 354.48 388.189 354.959 387.222 355.238C386.263 355.524 385.104 355.562 384 355.14C381.764 354.294 380.369 352.366 379.516 351.045C378.661 349.679 378.231 348.771 378.286 348.727C378.353 348.67 378.902 349.497 379.82 350.771C380.738 352.008 382.121 353.776 384.166 354.543C386.22 355.331 388.188 354.404 389.419 353.655C390.681 352.877 391.413 352.264 391.465 352.347Z" fill="#455A64"/>
<path d="M383.45 359.378C383.327 359.478 381.843 357.326 380.136 354.572C378.43 351.817 377.145 349.503 377.269 349.402C377.392 349.302 378.875 351.453 380.582 354.208C382.289 356.962 383.573 359.278 383.45 359.378Z" fill="#455A64"/>
<path d="M329.662 261.812C329.522 261.876 329.148 261.183 328.828 260.263C328.507 259.342 328.361 258.545 328.502 258.48C328.641 258.416 329.015 259.11 329.336 260.029C329.656 260.949 329.803 261.748 329.662 261.812Z" fill="#FAFAFA"/>
<path d="M349.984 265.144C349.833 265.144 349.712 264.548 349.712 263.812C349.712 263.076 349.834 262.478 349.984 262.478C350.135 262.478 350.257 263.074 350.257 263.812C350.257 264.548 350.135 265.144 349.984 265.144Z" fill="#FAFAFA"/>
<path d="M341.633 277.809C341.482 277.821 341.316 277.084 341.261 276.164C341.207 275.244 341.285 274.489 341.436 274.477C341.587 274.465 341.752 275.202 341.807 276.121C341.861 277.041 341.784 277.798 341.633 277.809Z" fill="#FAFAFA"/>
<path d="M326.372 287.137C326.247 287.243 325.814 286.798 325.252 286.335C324.695 285.864 324.194 285.528 324.242 285.36C324.283 285.198 324.937 285.295 325.573 285.828C326.212 286.358 326.494 287.041 326.372 287.137Z" fill="#FAFAFA"/>
<path d="M353.276 298.911C353.15 298.814 353.308 298.289 353.628 297.737C353.949 297.186 354.31 296.816 354.436 296.912C354.562 297.009 354.404 297.534 354.083 298.086C353.763 298.637 353.4 299.007 353.276 298.911Z" fill="#FAFAFA"/>
<path d="M336.631 302.243C336.48 302.243 336.358 301.248 336.358 300.021C336.358 298.794 336.481 297.8 336.631 297.8C336.782 297.8 336.904 298.795 336.904 300.021C336.904 301.248 336.782 302.243 336.631 302.243Z" fill="#FAFAFA"/>
<path d="M331.235 315.756C331.146 315.895 330.598 315.612 330.009 315.122C329.421 314.632 329.017 314.121 329.105 313.98C329.194 313.84 329.742 314.123 330.331 314.614C330.919 315.104 331.325 315.616 331.235 315.756Z" fill="#FAFAFA"/>
<path d="M348.049 320.459C348.11 320.616 347.77 320.944 347.289 321.19C346.808 321.436 346.369 321.505 346.307 321.348C346.246 321.19 346.586 320.862 347.067 320.616C347.547 320.372 347.987 320.301 348.049 320.459Z" fill="#FAFAFA"/>
<path d="M336.63 342.451C336.495 342.528 335.952 341.597 335.418 340.37C334.884 339.143 334.56 338.086 334.695 338.008C334.83 337.931 335.373 338.862 335.907 340.09C336.441 341.316 336.765 342.374 336.63 342.451Z" fill="#FAFAFA"/>
<path d="M355.21 340.452C355.076 340.37 355.316 339.558 355.743 338.638C356.17 337.717 356.624 337.038 356.758 337.12C356.891 337.202 356.653 338.014 356.225 338.934C355.797 339.853 355.343 340.534 355.21 340.452Z" fill="#FAFAFA"/>
<path d="M347.082 359.112C346.927 359.086 346.94 358.135 346.779 357.004C346.629 355.872 346.362 354.972 346.502 354.891C346.628 354.809 347.151 355.662 347.319 356.907C347.493 358.149 347.224 359.146 347.082 359.112Z" fill="#FAFAFA"/>
<path d="M338.373 369.775C338.26 369.892 337.737 369.439 337.202 368.764C336.668 368.09 336.325 367.447 336.437 367.332C336.548 367.215 337.072 367.668 337.607 368.343C338.141 369.017 338.484 369.659 338.373 369.775Z" fill="#FAFAFA"/>
<path d="M359.51 373.823C359.402 373.701 359.789 373.052 360.372 372.372C360.956 371.693 361.516 371.24 361.623 371.362C361.73 371.483 361.345 372.133 360.762 372.813C360.178 373.491 359.618 373.943 359.51 373.823Z" fill="#FAFAFA"/>
<path d="M347.351 389.782C347.202 389.755 347.2 388.837 347.346 387.731C347.492 386.624 347.732 385.748 347.881 385.775C348.03 385.802 348.033 386.719 347.887 387.827C347.74 388.932 347.5 389.808 347.351 389.782Z" fill="#FAFAFA"/>
<path d="M339.17 397.527C339.04 397.615 338.581 396.993 338.146 396.14C337.71 395.286 337.462 394.523 337.594 394.436C337.724 394.348 338.182 394.969 338.618 395.822C339.052 396.676 339.3 397.439 339.17 397.527Z" fill="#FAFAFA"/>
<path d="M358.879 407.305C358.967 407.446 358.432 408.058 357.685 408.672C356.937 409.287 356.259 409.67 356.171 409.53C356.083 409.389 356.618 408.777 357.366 408.163C358.114 407.548 358.791 407.164 358.879 407.305Z" fill="#FAFAFA"/>
<path d="M342.464 419.991C342.317 419.93 342.503 418.959 342.592 417.761C342.688 416.564 342.651 415.571 342.806 415.54C342.947 415.505 343.238 416.523 343.136 417.817C343.04 419.111 342.599 420.055 342.464 419.991Z" fill="#FAFAFA"/>
<path d="M349.018 438.196C348.9 438.305 348.457 437.895 348.03 437.282C347.603 436.669 347.351 436.083 347.47 435.975C347.587 435.866 348.03 436.276 348.457 436.889C348.884 437.504 349.135 438.089 349.018 438.196Z" fill="#FAFAFA"/>
<path d="M341.856 450.415C341.731 450.514 341.154 449.797 340.566 448.816C339.978 447.834 339.603 446.959 339.727 446.86C339.85 446.763 340.429 447.478 341.017 448.46C341.604 449.442 341.98 450.317 341.856 450.415Z" fill="#FAFAFA"/>
<path d="M361.597 435.087C361.455 435.025 361.471 434.578 361.631 434.088C361.792 433.596 362.036 433.248 362.178 433.31C362.32 433.37 362.304 433.818 362.143 434.308C361.983 434.799 361.738 435.147 361.597 435.087Z" fill="#FAFAFA"/>
<path d="M352.886 464.188C352.748 464.105 353.011 463.247 353.215 462.174C353.427 461.103 353.504 460.197 353.66 460.19C353.804 460.175 353.977 461.144 353.748 462.31C353.525 463.477 353.012 464.271 352.886 464.188Z" fill="#FAFAFA"/>
<path d="M358.548 278.004C358.411 278.078 358.078 277.593 357.805 276.921C357.531 276.25 357.419 275.646 357.557 275.573C357.693 275.5 358.026 275.984 358.3 276.656C358.573 277.327 358.684 277.931 358.548 278.004Z" fill="#FAFAFA"/>
<path d="M343.984 240.486C344.067 240.639 343.328 241.316 342.548 242.28C341.761 243.236 341.219 244.125 341.081 244.041C340.951 243.968 341.305 242.878 342.149 241.851C342.988 240.818 343.914 240.341 343.984 240.486Z" fill="#FAFAFA"/>
<path d="M356.952 240.041C356.8 240.076 356.554 239.361 356.189 238.535C355.833 237.705 355.482 237.049 355.597 236.931C355.703 236.815 356.283 237.34 356.679 238.255C357.078 239.167 357.097 240.014 356.952 240.041Z" fill="#FAFAFA"/>
<path d="M316.551 252.281C316.41 252.218 316.554 251.419 316.871 250.497C317.189 249.576 317.56 248.881 317.7 248.943C317.841 249.007 317.697 249.806 317.379 250.727C317.062 251.65 316.691 252.345 316.551 252.281Z" fill="#FAFAFA"/>
<path d="M317.855 270.476C317.759 270.61 317.161 270.22 316.519 269.606C315.878 268.993 315.436 268.387 315.533 268.255C315.629 268.121 316.227 268.511 316.869 269.125C317.511 269.738 317.952 270.342 317.855 270.476Z" fill="#FAFAFA"/>
<path d="M344.371 226.047C344.231 226.111 343.944 225.666 343.73 225.053C343.516 224.44 343.457 223.89 343.597 223.825C343.737 223.762 344.024 224.206 344.238 224.819C344.452 225.432 344.511 225.982 344.371 226.047Z" fill="#FAFAFA"/>
<path d="M369.76 234.941C369.612 234.904 369.626 234.178 369.789 233.321C369.953 232.463 370.205 231.797 370.353 231.834C370.5 231.871 370.487 232.597 370.323 233.454C370.159 234.312 369.907 234.978 369.76 234.941Z" fill="#FAFAFA"/>
<path d="M375.724 248.705C375.585 248.639 375.775 247.74 376.149 246.697C376.524 245.654 376.94 244.862 377.079 244.929C377.219 244.995 377.029 245.894 376.654 246.937C376.28 247.98 375.864 248.772 375.724 248.705Z" fill="#FAFAFA"/>
<path d="M371.468 259.812C371.332 259.889 370.834 259.057 370.352 257.954C369.871 256.849 369.59 255.891 369.725 255.814C369.861 255.737 370.359 256.569 370.841 257.673C371.322 258.778 371.602 259.735 371.468 259.812Z" fill="#FAFAFA"/>
<path d="M380.564 270.92C380.423 270.858 380.525 270.161 380.793 269.364C381.06 268.566 381.391 267.97 381.532 268.033C381.672 268.095 381.571 268.792 381.303 269.589C381.035 270.386 380.705 270.982 380.564 270.92Z" fill="#FAFAFA"/>
<path d="M372.434 281.806C372.306 281.897 371.986 281.574 371.719 281.084C371.451 280.592 371.339 280.121 371.467 280.029C371.595 279.937 371.915 280.26 372.183 280.751C372.449 281.241 372.563 281.714 372.434 281.806Z" fill="#FAFAFA"/>
<path d="M374.17 304.25C374.06 304.368 373.406 303.767 372.712 302.908C372.017 302.049 371.543 301.257 371.654 301.139C371.764 301.021 372.417 301.622 373.111 302.481C373.807 303.34 374.281 304.132 374.17 304.25Z" fill="#FAFAFA"/>
<path d="M384.822 291.358C384.703 291.465 384.13 290.855 383.543 289.996C382.955 289.137 382.574 288.354 382.692 288.247C382.811 288.14 383.384 288.749 383.972 289.608C384.561 290.467 384.941 291.25 384.822 291.358Z" fill="#FAFAFA"/>
<path d="M390.664 309.15C390.528 309.075 390.766 308.171 391.196 307.13C391.627 306.088 392.085 305.305 392.222 305.378C392.358 305.453 392.12 306.356 391.69 307.398C391.26 308.439 390.801 309.224 390.664 309.15Z" fill="#FAFAFA"/>
<path d="M378.242 323.791C378.109 323.884 377.622 323.214 376.946 322.506C376.276 321.789 375.656 321.285 375.726 321.125C375.786 320.972 376.58 321.26 377.317 322.044C378.056 322.825 378.37 323.71 378.242 323.791Z" fill="#FAFAFA"/>
<path d="M379.017 338.897C379.017 339.071 378.497 339.21 377.856 339.21C377.215 339.21 376.695 339.069 376.695 338.897C376.695 338.725 377.215 338.584 377.856 338.584C378.496 338.584 379.017 338.724 379.017 338.897Z" fill="#FAFAFA"/>
<path d="M391.79 334.676C391.658 334.582 391.927 333.831 392.128 332.885C392.339 331.94 392.408 331.133 392.563 331.121C392.708 331.102 392.89 331.982 392.658 333.036C392.431 334.093 391.91 334.771 391.79 334.676Z" fill="#FAFAFA"/>
<path d="M404.48 339.741C404.337 339.799 403.95 338.954 403.614 337.857C403.278 336.758 403.122 335.822 403.265 335.765C403.407 335.707 403.795 336.551 404.131 337.65C404.465 338.747 404.623 339.683 404.48 339.741Z" fill="#FAFAFA"/>
<path d="M402.461 360.459C402.327 360.379 402.651 359.368 403.183 358.202C403.716 357.034 404.255 356.155 404.39 356.234C404.523 356.315 404.2 357.326 403.667 358.492C403.134 359.659 402.594 360.54 402.461 360.459Z" fill="#FAFAFA"/>
<path d="M390.877 372.637C390.737 372.704 390.306 371.869 389.914 370.773C389.522 369.676 389.317 368.735 389.457 368.669C389.596 368.603 390.028 369.438 390.419 370.534C390.812 371.63 391.018 372.572 390.877 372.637Z" fill="#FAFAFA"/>
<path d="M378.049 377.328C378.049 377.502 377.615 377.642 377.081 377.642C376.547 377.642 376.113 377.501 376.113 377.328C376.113 377.156 376.547 377.015 377.081 377.015C377.615 377.015 378.049 377.155 378.049 377.328Z" fill="#FAFAFA"/>
<path d="M385.401 396.656C385.255 396.7 384.963 395.991 384.75 395.071C384.536 394.15 384.482 393.368 384.627 393.324C384.773 393.279 385.065 393.989 385.278 394.909C385.492 395.828 385.547 396.61 385.401 396.656Z" fill="#FAFAFA"/>
<path d="M376.112 390.213C375.983 390.124 376.137 389.554 376.458 388.941C376.779 388.328 377.144 387.903 377.274 387.992C377.403 388.081 377.248 388.651 376.927 389.264C376.606 389.877 376.241 390.302 376.112 390.213Z" fill="#FAFAFA"/>
<path d="M375.918 411.539C375.768 411.56 375.561 410.731 375.454 409.688C375.347 408.644 375.381 407.783 375.531 407.763C375.681 407.742 375.889 408.571 375.996 409.614C376.103 410.657 376.068 411.519 375.918 411.539Z" fill="#FAFAFA"/>
</svg>
