<svg width="615" height="571" viewBox="0 0 615 571" fill="none" xmlns="http://www.w3.org/2000/svg">
<path fill-rule="evenodd" clip-rule="evenodd" d="M313.926 2.72073C376.739 3.59417 442.42 1.07828 494.78 35.2165C548.313 70.1192 580.92 128.318 599.368 188.826C617.499 248.296 623.631 314.218 597.005 370.511C571.744 423.917 510.462 445.898 461.638 480.01C413.49 513.649 372.328 559.642 313.926 568.288C250.32 577.703 184.818 562.116 129.942 529.112C71.9297 494.223 10.9355 446.218 0.958807 380.062C-8.79786 315.365 58.5957 267.184 81.1634 205.661C102.598 147.226 82.0541 71.3428 129.318 30.1346C177.056 -11.4872 250.138 1.83373 313.926 2.72073Z" fill="#FF92C0"/>
</svg>
