<svg width="615" height="572" viewBox="0 0 615 572" fill="none" xmlns="http://www.w3.org/2000/svg">
<path fill-rule="evenodd" clip-rule="evenodd" d="M313.926 2.92074C376.739 3.79418 442.42 1.27829 494.78 35.4165C548.313 70.3192 580.92 128.518 599.368 189.026C617.499 248.496 623.631 314.418 597.005 370.711C571.744 424.117 510.462 446.099 461.638 480.21C413.49 513.849 372.328 559.842 313.926 568.488C250.32 577.904 184.818 562.316 129.942 529.312C71.9297 494.423 10.9355 446.418 0.958807 380.262C-8.79786 315.565 58.5957 267.384 81.1634 205.861C102.598 147.426 82.0541 71.5428 129.318 30.3347C177.056 -11.2872 250.138 2.03374 313.926 2.92074Z" fill="#FF92C0" fill-opacity="0.12"/>
</svg>
