<svg width="1440" height="590" viewBox="0 0 1440 590" fill="none" xmlns="http://www.w3.org/2000/svg">
<path d="M654.732 1161.4C761.301 1091.79 822.674 1132.05 929.244 1062.44C1035.81 992.829 974.441 952.57 1080.98 882.98C1187.52 813.389 1248.92 853.628 1355.49 784.017C1462.06 714.406 1400.69 674.148 1507.26 604.537C1613.83 534.927 1675.2 575.185 1781.8 505.554C1888.4 435.924 1827 395.685 1933.57 326.075" stroke="#FF92C0" stroke-opacity="0.04" stroke-width="20" stroke-miterlimit="10"/>
<path d="M-545.626 360.956C-439.057 291.345 -377.684 331.604 -271.115 261.993C-164.545 192.383 -225.917 152.124 -119.378 82.5335C-12.8395 12.9429 48.5637 53.1814 155.133 -16.4292C261.703 -86.0398 200.33 -126.298 306.9 -195.909C413.47 -265.52 474.842 -225.261 581.443 -294.892C688.043 -364.522 626.64 -404.761 733.209 -474.372" stroke="#FF92C0" stroke-opacity="0.04" stroke-width="20" stroke-miterlimit="10"/>
<path d="M221.426 862.539C327.996 792.928 389.368 833.187 495.938 763.576C602.507 693.965 541.135 653.707 647.674 584.116C754.213 514.525 815.616 554.764 922.186 485.153C1028.76 415.543 967.383 375.284 1073.95 305.673C1180.52 236.063 1241.89 276.321 1348.5 206.691C1455.1 137.06 1393.69 96.8215 1500.26 27.2108" stroke="#FF92C0" stroke-opacity="0.04" stroke-width="20" stroke-miterlimit="10"/>
<path d="M-167.87 607.506C-61.3 537.896 0.0725319 578.154 106.642 508.544C213.212 438.933 151.839 398.674 258.378 329.084C364.917 259.493 426.321 299.732 532.89 230.121C639.46 160.51 578.087 120.252 684.657 50.6412C791.227 -18.9694 852.599 21.2892 959.199 -48.3415C1065.8 -117.972 1004.4 -158.211 1110.97 -227.821" stroke="#FF92C0" stroke-opacity="0.04" stroke-width="20" stroke-miterlimit="10"/>
<path d="M597.598 1116.52C704.167 1046.91 765.54 1087.17 872.109 1017.56C978.679 947.949 917.307 907.691 1023.85 838.1C1130.38 768.509 1191.79 808.748 1298.36 739.137C1404.93 669.527 1343.55 629.268 1450.12 559.657C1556.69 490.047 1618.07 530.305 1724.67 460.675C1831.27 391.044 1769.86 350.805 1876.43 281.195" stroke="#FF92C0" stroke-opacity="0.04" stroke-width="20" stroke-miterlimit="10"/>
<path d="M-360.065 492.145C-253.495 422.534 -192.123 462.792 -85.5531 393.182C21.0165 323.571 -40.3559 283.313 66.1831 213.722C172.722 144.131 234.125 184.37 340.695 114.759C447.265 45.1486 385.892 4.89007 492.462 -64.7206C599.031 -134.331 660.404 -94.0727 767.004 -163.703C873.605 -233.334 812.201 -273.573 918.771 -343.183" stroke="#FF92C0" stroke-opacity="0.04" stroke-width="20" stroke-miterlimit="10"/>
<path d="M405.46 992.876C512.03 923.265 573.402 963.524 679.972 893.913C786.541 824.303 725.169 784.044 831.708 714.453C938.247 644.863 999.65 685.101 1106.22 615.491C1212.79 545.88 1151.42 505.622 1257.99 436.011C1364.56 366.4 1425.93 406.659 1532.53 337.028C1639.13 267.397 1577.73 227.159 1684.3 157.548" stroke="#FF92C0" stroke-opacity="0.04" stroke-width="20" stroke-miterlimit="10"/>
<path d="M17.6915 738.695C124.261 669.085 185.634 709.343 292.203 639.733C398.773 570.122 337.401 529.863 443.94 460.273C550.479 390.682 611.882 430.921 718.451 361.31C825.021 291.699 763.648 251.441 870.218 181.83C976.788 112.22 1038.16 152.478 1144.76 82.8475C1251.36 13.2168 1189.96 -27.0218 1296.53 -96.6324" stroke="#FF92C0" stroke-opacity="0.04" stroke-width="20" stroke-miterlimit="10"/>
<path d="M783.16 1247.71C889.729 1178.1 951.102 1218.36 1057.67 1148.75C1164.24 1079.14 1102.87 1038.88 1209.41 969.287C1315.95 899.697 1377.35 939.935 1483.92 870.325C1590.49 800.714 1529.12 760.456 1635.69 690.845C1742.26 621.234 1803.63 661.493 1910.23 591.862C2016.83 522.231 1955.43 481.993 2062 412.382" stroke="#FF92C0" stroke-opacity="0.04" stroke-width="20" stroke-miterlimit="10"/>
<path d="M-571.241 337.777C-464.671 268.166 -403.299 308.425 -296.729 238.814C-190.159 169.204 -251.532 128.945 -144.993 59.3543C-38.4538 -10.2363 22.9493 30.0022 129.519 -39.6084C236.089 -109.219 174.716 -149.478 281.286 -219.088C387.855 -288.699 449.228 -248.44 555.828 -318.071C662.429 -387.702 601.025 -427.94 707.595 -497.551" stroke="#FF92C0" stroke-opacity="0.04" stroke-width="20" stroke-miterlimit="10"/>
<path d="M195.812 839.355C302.382 769.745 363.754 810.003 470.324 740.393C576.894 670.782 515.521 630.524 622.06 560.933C728.599 491.342 790.002 531.581 896.572 461.97C1003.14 392.36 941.769 352.101 1048.34 282.49C1154.91 212.88 1216.28 253.138 1322.88 183.508C1429.48 113.877 1368.08 73.6384 1474.65 4.02774" stroke="#FF92C0" stroke-opacity="0.04" stroke-width="20" stroke-miterlimit="10"/>
<path d="M-193.484 584.327C-86.9141 514.717 -25.5416 554.975 81.0281 485.364C187.598 415.754 126.225 375.495 232.764 305.905C339.303 236.314 400.706 276.553 507.276 206.942C613.846 137.331 552.473 97.0727 659.043 27.462C765.613 -42.1486 826.985 -1.89003 933.585 -71.5207C1040.19 -141.151 978.783 -181.39 1085.35 -251.001" stroke="#FF92C0" stroke-opacity="0.04" stroke-width="20" stroke-miterlimit="10"/>
<path d="M571.984 1093.34C678.554 1023.73 739.926 1063.99 846.496 994.381C953.066 924.77 891.693 884.511 998.232 814.921C1104.77 745.33 1166.17 785.569 1272.74 715.958C1379.31 646.347 1317.94 606.089 1424.51 536.478C1531.08 466.868 1592.45 507.126 1699.05 437.495C1805.65 367.865 1744.25 327.626 1850.82 258.016" stroke="#FF92C0" stroke-opacity="0.04" stroke-width="20" stroke-miterlimit="10"/>
<path d="M-385.68 468.966C-279.11 399.355 -217.737 439.614 -111.168 370.003C-4.59808 300.392 -65.9706 260.134 40.5684 190.543C147.107 120.953 208.511 161.191 315.08 91.5806C421.65 21.9699 360.277 -18.2886 466.847 -87.8993C573.417 -157.51 634.789 -117.251 741.39 -186.882C847.99 -256.513 786.587 -296.751 893.156 -366.362" stroke="#FF92C0" stroke-opacity="0.04" stroke-width="20" stroke-miterlimit="10"/>
<path d="M379.846 969.696C486.416 900.086 547.789 940.344 654.358 870.734C760.928 801.123 699.555 760.864 806.094 691.274C912.633 621.683 974.037 661.922 1080.61 592.311C1187.18 522.7 1125.8 482.442 1232.37 412.831C1338.94 343.221 1400.32 383.479 1506.92 313.848C1613.52 244.218 1552.11 203.979 1658.68 134.369" stroke="#FF92C0" stroke-opacity="0.04" stroke-width="20" stroke-miterlimit="10"/>
<path d="M-7.92224 715.515C98.6474 645.904 160.02 686.163 266.59 616.552C373.159 546.941 311.787 506.683 418.326 437.092C524.865 367.501 586.268 407.74 692.838 338.129C799.407 268.519 738.035 228.26 844.604 158.65C951.174 89.0389 1012.55 129.297 1119.15 59.6668C1225.75 -9.96388 1164.34 -50.2024 1270.91 -119.813" stroke="#FF92C0" stroke-opacity="0.04" stroke-width="20" stroke-miterlimit="10"/>
<path d="M757.545 1224.53C864.115 1154.92 925.487 1195.18 1032.06 1125.57C1138.63 1055.96 1077.25 1015.7 1183.79 946.109C1290.33 876.518 1351.74 916.757 1458.3 847.146C1564.87 777.535 1503.5 737.277 1610.07 667.666C1716.64 598.056 1778.01 638.314 1884.61 568.683C1991.21 499.053 1929.81 458.814 2036.38 389.204" stroke="#FF92C0" stroke-opacity="0.04" stroke-width="20" stroke-miterlimit="10"/>
<path d="M-643.367 294.777C-536.798 225.167 -475.425 265.425 -368.855 195.815C-262.286 126.204 -323.658 85.9454 -217.119 16.3548C-110.58 -53.2358 -49.1771 -12.9973 57.3925 -82.6079C163.962 -152.219 102.59 -192.477 209.159 -262.088C315.729 -331.698 377.101 -291.44 483.702 -361.071C590.302 -430.701 528.899 -470.94 635.469 -540.55" stroke="#FF92C0" stroke-opacity="0.04" stroke-width="20" stroke-miterlimit="10"/>
<path d="M123.685 796.36C230.255 726.749 291.627 767.008 398.197 697.397C504.767 627.787 443.394 587.528 549.933 517.937C656.472 448.347 717.875 488.585 824.445 418.975C931.015 349.364 869.642 309.105 976.212 239.495C1082.78 169.884 1144.15 210.143 1250.75 140.512C1357.35 70.8813 1295.95 30.6428 1402.52 -38.9679" stroke="#FF92C0" stroke-opacity="0.04" stroke-width="20" stroke-miterlimit="10"/>
<path d="M-265.669 549.61C-159.099 479.999 -97.7264 520.258 8.84324 450.647C115.413 381.037 54.0404 340.778 160.579 271.187C267.118 201.597 328.522 241.835 435.091 172.225C541.661 102.614 480.288 62.3554 586.858 -7.25524C693.428 -76.8659 754.8 -36.6073 861.401 -106.238C968.001 -175.869 906.598 -216.107 1013.17 -285.718" stroke="#FF92C0" stroke-opacity="0.04" stroke-width="20" stroke-miterlimit="10"/>
<path d="M499.857 1050.34C606.427 980.732 667.799 1020.99 774.369 951.38C880.938 881.769 819.566 841.511 926.105 771.92C1032.64 702.33 1094.05 742.568 1200.62 672.958C1307.19 603.347 1245.81 563.088 1352.38 493.478C1458.95 423.867 1520.33 464.126 1626.93 394.495C1733.53 324.864 1672.12 284.626 1778.69 215.015" stroke="#FF92C0" stroke-opacity="0.04" stroke-width="20" stroke-miterlimit="10"/>
<path d="M-457.807 425.967C-351.237 356.357 -289.864 396.615 -183.295 327.005C-76.725 257.394 -138.098 217.135 -31.5585 147.545C74.9805 77.9541 136.384 118.193 242.953 48.582C349.523 -21.0286 288.15 -61.2872 394.72 -130.898C501.29 -200.508 562.662 -160.25 669.263 -229.881C775.863 -299.511 714.46 -339.75 821.029 -409.36" stroke="#FF92C0" stroke-opacity="0.04" stroke-width="20" stroke-miterlimit="10"/>
<path d="M309.247 927.548C415.816 857.937 477.189 898.196 583.759 828.585C690.328 758.975 628.956 718.716 735.495 649.125C842.034 579.535 903.437 619.773 1010.01 550.163C1116.58 480.552 1055.2 440.293 1161.77 370.683C1268.34 301.072 1329.72 341.331 1436.32 271.7C1542.92 202.069 1481.51 161.831 1588.08 92.2201" stroke="#FF92C0" stroke-opacity="0.04" stroke-width="20" stroke-miterlimit="10"/>
<path d="M-80.0497 672.521C26.52 602.911 87.8925 643.169 194.462 573.559C301.032 503.948 239.659 463.69 346.198 394.099C452.737 324.508 514.14 364.747 620.71 295.136C727.28 225.526 665.907 185.267 772.477 115.656C879.047 46.0457 940.419 86.3043 1047.02 16.6736C1153.62 -52.957 1092.22 -93.1956 1198.79 -162.806" stroke="#FF92C0" stroke-opacity="0.04" stroke-width="20" stroke-miterlimit="10"/>
<path d="M685.417 1181.54C791.987 1111.93 853.36 1152.19 959.929 1082.58C1066.5 1012.96 1005.13 972.706 1111.67 903.116C1218.2 833.525 1279.61 873.763 1386.18 804.153C1492.75 734.542 1431.37 694.284 1537.94 624.673C1644.51 555.062 1705.89 595.321 1812.49 525.69C1919.09 456.06 1857.68 415.821 1964.25 346.21" stroke="#FF92C0" stroke-opacity="0.04" stroke-width="20" stroke-miterlimit="10"/>
<path d="M-514.94 381.083C-408.37 311.473 -346.998 351.731 -240.428 282.121C-133.859 212.51 -195.231 172.252 -88.6921 102.661C17.8469 33.0703 79.2501 73.3089 185.82 3.69824C292.389 -65.9124 231.017 -106.171 337.587 -175.782C444.156 -245.392 505.529 -205.134 612.129 -274.764C718.729 -344.395 657.326 -384.634 763.896 -454.244" stroke="#FF92C0" stroke-opacity="0.04" stroke-width="20" stroke-miterlimit="10"/>
<path d="M252.113 882.668C358.682 813.058 420.055 853.316 526.624 783.706C633.194 714.095 571.822 673.837 678.361 604.246C784.9 534.655 846.303 574.894 952.872 505.283C1059.44 435.673 998.069 395.414 1104.64 325.803C1211.21 256.193 1272.58 296.451 1379.18 226.821C1485.78 157.19 1424.38 116.951 1530.95 47.3407" stroke="#FF92C0" stroke-opacity="0.04" stroke-width="20" stroke-miterlimit="10"/>
<path d="M-137.184 627.638C-30.6139 558.028 30.7586 598.286 137.328 528.675C243.898 459.065 182.525 418.806 289.064 349.216C395.603 279.625 457.007 319.864 563.576 250.253C670.146 180.642 608.773 140.384 715.343 70.7731C821.913 1.16244 883.285 41.421 989.886 -28.2097C1096.49 -97.8403 1035.08 -138.079 1141.65 -207.69" stroke="#FF92C0" stroke-opacity="0.04" stroke-width="20" stroke-miterlimit="10"/>
<path d="M628.285 1136.65C734.854 1067.04 796.227 1107.29 902.796 1037.68C1009.37 968.073 947.994 927.814 1054.53 858.223C1161.07 788.633 1222.47 828.871 1329.04 759.261C1435.61 689.65 1374.24 649.392 1480.81 579.781C1587.38 510.17 1648.75 550.429 1755.35 480.798C1861.95 411.167 1800.55 370.929 1907.12 301.318" stroke="#FF92C0" stroke-opacity="0.04" stroke-width="20" stroke-miterlimit="10"/>
<path d="M-329.379 512.272C-222.809 442.662 -161.437 482.92 -54.867 413.31C51.7027 343.699 -9.66978 303.441 96.8692 233.85C203.408 164.259 264.811 204.498 371.381 134.887C477.951 65.2766 416.578 25.018 523.148 -44.5926C629.717 -114.203 691.09 -73.9447 797.69 -143.575C904.291 -213.206 842.888 -253.445 949.457 -323.055" stroke="#FF92C0" stroke-opacity="0.04" stroke-width="20" stroke-miterlimit="10"/>
<path d="M436.146 1013.01C542.716 943.401 604.088 983.66 710.658 914.049C817.227 844.438 755.855 804.18 862.394 734.589C968.933 664.999 1030.34 705.237 1136.91 635.626C1243.48 566.016 1182.1 525.757 1288.67 456.147C1395.24 386.536 1456.61 426.795 1563.22 357.164C1669.82 287.533 1608.41 247.295 1714.98 177.684" stroke="#FF92C0" stroke-opacity="0.04" stroke-width="20" stroke-miterlimit="10"/>
<path d="M48.3781 758.825C154.948 689.214 216.32 729.473 322.89 659.862C429.46 590.251 368.087 549.993 474.626 480.402C581.165 410.812 642.568 451.05 749.138 381.439C855.708 311.829 794.335 271.57 900.905 201.96C1007.47 132.349 1068.85 172.608 1175.45 102.977C1282.05 33.3462 1220.64 -6.89238 1327.21 -76.503" stroke="#FF92C0" stroke-opacity="0.04" stroke-width="20" stroke-miterlimit="10"/>
<path d="M813.845 1267.84C920.415 1198.23 981.787 1238.48 1088.36 1168.87C1194.93 1099.26 1133.55 1059 1240.09 989.414C1346.63 919.824 1408.04 960.062 1514.61 890.452C1621.17 820.841 1559.8 780.582 1666.37 710.972C1772.94 641.361 1834.31 681.62 1940.91 611.989C2047.51 542.358 1986.11 502.12 2092.68 432.509" stroke="#FF92C0" stroke-opacity="0.04" stroke-width="20" stroke-miterlimit="10"/>
<path d="M-110.736 652.388C-4.16593 582.777 57.2066 623.036 163.776 553.425C270.346 483.814 208.973 443.556 315.512 373.965C422.051 304.375 483.455 344.613 590.024 275.002C696.594 205.392 635.221 165.133 741.791 95.5226C848.361 25.9119 909.733 66.1705 1016.33 -3.46016C1122.93 -73.0908 1061.53 -113.329 1168.1 -182.94" stroke="#FF92C0" stroke-opacity="0.04" stroke-width="20" stroke-miterlimit="10"/>
<path d="M-674.054 274.65C-567.484 205.04 -506.111 245.298 -399.542 175.688C-292.972 106.077 -354.345 65.8185 -247.806 -3.77217C-141.267 -73.3628 -79.8634 -33.1242 26.7062 -102.735C133.276 -172.346 71.9034 -212.604 178.473 -282.215C285.043 -351.825 346.415 -311.567 453.016 -381.197C559.616 -450.828 498.213 -491.067 604.782 -560.677" stroke="#FF92C0" stroke-opacity="0.04" stroke-width="20" stroke-miterlimit="10"/>
<path d="M92.9989 776.233C199.569 706.622 260.941 746.881 367.511 677.27C474.08 607.66 412.708 567.401 519.247 497.81C625.786 428.22 687.189 468.458 793.759 398.848C900.328 329.237 838.956 288.978 945.526 219.368C1052.1 149.757 1113.47 190.016 1220.07 120.385C1326.67 50.7544 1265.27 10.5158 1371.83 -59.0948" stroke="#FF92C0" stroke-opacity="0.04" stroke-width="20" stroke-miterlimit="10"/>
<path d="M-296.355 529.48C-189.785 459.869 -128.413 500.128 -21.843 430.517C84.7266 360.907 23.3541 320.648 129.893 251.057C236.432 181.467 297.835 221.705 404.405 152.095C510.975 82.4841 449.602 42.2255 556.172 -27.3851C662.741 -96.9958 724.114 -56.7372 830.714 -126.368C937.315 -195.999 875.911 -236.237 982.481 -305.848" stroke="#FF92C0" stroke-opacity="0.04" stroke-width="20" stroke-miterlimit="10"/>
<path d="M469.171 1030.21C575.741 960.604 637.113 1000.86 743.683 931.252C850.252 861.641 788.88 821.383 895.419 751.792C1001.96 682.202 1063.36 722.44 1169.93 652.83C1276.5 583.219 1215.13 542.96 1321.7 473.35C1428.27 403.739 1489.64 443.998 1596.24 374.367C1702.84 304.736 1641.44 264.498 1748.01 194.887" stroke="#FF92C0" stroke-opacity="0.04" stroke-width="20" stroke-miterlimit="10"/>
<path d="M-488.492 405.837C-381.923 336.227 -320.55 376.485 -213.98 306.875C-107.411 237.264 -168.783 197.005 -62.2443 127.415C44.2947 57.8242 105.698 98.0628 212.268 28.4521C318.837 -41.1585 257.465 -81.4171 364.034 -151.028C470.604 -220.638 531.976 -180.38 638.577 -250.01C745.177 -319.641 683.774 -359.88 790.344 -429.49" stroke="#FF92C0" stroke-opacity="0.04" stroke-width="20" stroke-miterlimit="10"/>
<path d="M278.56 907.421C385.129 837.81 446.502 878.069 553.071 808.458C659.641 738.848 598.269 698.589 704.808 628.998C811.347 559.408 872.75 599.646 979.319 530.036C1085.89 460.425 1024.52 420.166 1131.09 350.556C1237.66 280.945 1299.03 321.204 1405.63 251.573C1512.23 181.942 1450.83 141.704 1557.4 72.0932" stroke="#FF92C0" stroke-opacity="0.04" stroke-width="20" stroke-miterlimit="10"/>
<path d="M-601.927 317.646C-495.357 248.036 -433.985 288.294 -327.415 218.684C-220.845 149.073 -282.218 108.815 -175.679 39.2239C-69.1399 -30.3667 -7.73672 9.87187 98.8329 -59.7388C205.403 -129.349 144.03 -169.608 250.6 -239.219C357.169 -308.829 418.542 -268.571 525.142 -338.201C631.743 -407.832 570.339 -448.071 676.909 -517.681" stroke="#FF92C0" stroke-opacity="0.04" stroke-width="20" stroke-miterlimit="10"/>
<path d="M165.126 819.226C271.696 749.615 333.068 789.874 439.638 720.263C546.208 650.653 484.835 610.394 591.374 540.804C697.913 471.213 759.316 511.451 865.886 441.841C972.456 372.23 911.083 331.972 1017.65 262.361C1124.22 192.75 1185.59 233.009 1292.2 163.378C1398.8 93.7475 1337.39 53.509 1443.96 -16.1017" stroke="#FF92C0" stroke-opacity="0.04" stroke-width="20" stroke-miterlimit="10"/>
<path d="M-224.17 564.198C-117.6 494.587 -56.2278 534.846 50.3419 465.235C156.912 395.624 95.5391 355.366 202.078 285.775C308.617 216.185 370.02 256.423 476.59 186.812C583.16 117.202 521.787 76.9433 628.357 7.33265C734.926 -62.278 796.299 -22.0194 902.899 -91.6501C1009.5 -161.281 948.096 -201.519 1054.67 -271.13" stroke="#FF92C0" stroke-opacity="0.04" stroke-width="20" stroke-miterlimit="10"/>
<path d="M541.298 1073.21C647.868 1003.6 709.24 1043.86 815.81 974.249C922.379 904.638 861.007 864.379 967.546 794.789C1074.08 725.198 1135.49 765.437 1242.06 695.826C1348.63 626.216 1287.25 585.957 1393.82 516.346C1500.39 446.736 1561.77 486.994 1668.37 417.364C1774.97 347.733 1713.56 307.494 1820.13 237.884" stroke="#FF92C0" stroke-opacity="0.04" stroke-width="20" stroke-miterlimit="10"/>
<path d="M-416.366 448.833C-309.796 379.222 -248.424 419.48 -141.854 349.87C-35.2844 280.259 -96.6568 240.001 9.88216 170.41C116.421 100.819 177.824 141.058 284.394 71.4473C390.964 1.83662 329.591 -38.4219 436.161 -108.033C542.73 -177.643 604.103 -137.385 710.703 -207.015C817.304 -276.646 755.9 -316.885 862.47 -386.495" stroke="#FF92C0" stroke-opacity="0.04" stroke-width="20" stroke-miterlimit="10"/>
<path d="M349.16 949.57C455.73 879.959 517.102 920.218 623.672 850.607C730.242 780.996 668.869 740.738 775.408 671.147C881.947 601.557 943.35 641.795 1049.92 572.185C1156.49 502.574 1095.12 462.315 1201.69 392.705C1308.26 323.094 1369.63 363.353 1476.23 293.722C1582.83 224.091 1521.43 183.853 1628 114.242" stroke="#FF92C0" stroke-opacity="0.04" stroke-width="20" stroke-miterlimit="10"/>
<path d="M-38.6088 695.386C67.9609 625.776 129.333 666.034 235.903 596.424C342.473 526.813 281.1 486.554 387.639 416.964C494.178 347.373 555.581 387.612 662.151 318.001C768.721 248.39 707.348 208.132 813.918 138.521C920.488 68.9105 981.86 109.169 1088.46 39.5384C1195.06 -30.0923 1133.66 -70.3309 1240.23 -139.941" stroke="#FF92C0" stroke-opacity="0.04" stroke-width="20" stroke-miterlimit="10"/>
<path d="M726.859 1204.4C833.429 1134.78 894.801 1175.04 1001.37 1105.43C1107.94 1035.82 1046.57 995.564 1153.11 925.973C1259.65 856.382 1321.05 896.621 1427.62 827.01C1534.19 757.4 1472.82 717.141 1579.39 647.53C1685.96 577.92 1747.33 618.178 1853.93 548.548C1960.53 478.917 1899.13 438.678 2005.7 369.068" stroke="#FF92C0" stroke-opacity="0.04" stroke-width="20" stroke-miterlimit="10"/>
</svg>
