<svg width="329" height="48" viewBox="0 0 329 48" fill="none" xmlns="http://www.w3.org/2000/svg">
<mask id="path-1-inside-1_782_4416" fill="white">
<path d="M0 0H329V48H0V0Z"/>
</mask>
<path d="M0 0H329V48H0V0Z" fill="#FFA900"/>
<path d="M-4 0V1H4V0H-4ZM-4 3V5H4V3H-4ZM-4 7V9H4V7H-4ZM-4 11V13H4V11H-4ZM-4 15V17H4V15H-4ZM-4 19V21H4V19H-4ZM-4 23V25H4V23H-4ZM-4 27V29H4V27H-4ZM-4 31V33H4V31H-4ZM-4 35V37H4V35H-4ZM-4 39V41H4V39H-4ZM-4 43V45H4V43H-4ZM-4 47V48H4V47H-4ZM333 48V47H325V48H333ZM333 45V43H325V45H333ZM333 41V39H325V41H333ZM333 37V35H325V37H333ZM333 33V31H325V33H333ZM333 29V27H325V29H333ZM333 25V23H325V25H333ZM333 21V19H325V21H333ZM333 17V15H325V17H333ZM333 13V11H325V13H333ZM333 9V7H325V9H333ZM333 5V3H325V5H333ZM333 0.999999V0H325V0.999999H333ZM-8 0V1H8V0H-8ZM-8 3V5H8V3H-8ZM-8 7V9H8V7H-8ZM-8 11V13H8V11H-8ZM-8 15V17H8V15H-8ZM-8 19V21H8V19H-8ZM-8 23V25H8V23H-8ZM-8 27V29H8V27H-8ZM-8 31V33H8V31H-8ZM-8 35V37H8V35H-8ZM-8 39V41H8V39H-8ZM-8 43V45H8V43H-8ZM-8 47V48H8V47H-8ZM337 48V47H321V48H337ZM337 45V43H321V45H337ZM337 41V39H321V41H337ZM337 37V35H321V37H337ZM337 33V31H321V33H337ZM337 29V27H321V29H337ZM337 25V23H321V25H337ZM337 21V19H321V21H337ZM337 17V15H321V17H337ZM337 13V11H321V13H337ZM337 9V7H321V9H337ZM337 5V3H321V5H337ZM337 0.999999V0H321V0.999999H337Z" fill="#FF7D00" mask="url(#path-1-inside-1_782_4416)"/>
</svg>
